/* XPM */
static char *_7e0268255da4c0c8518f72bfd70f7f4xXigSiawq7VBeYDa[] = {
/* columns rows colors chars-per-pixel */
"16 16 2 1 ",
"  c black",
". c #9BADB7",
/* pixels */
"................",
". ............ .",
"................",
"................",
"................",
"................",
"................",
".......  .......",
".......  .......",
"................",
"................",
"................",
"................",
"................",
". ............ .",
"................"
};
