/* XPM */
static char *result[] = {
/* columns rows colors chars-per-pixel */
"40 40 227 2 ",
"   c black",
".  c #010101",
"X  c #020202",
"o  c gray1",
"O  c #040404",
"+  c #040505",
"@  c gray2",
"#  c #050506",
"$  c #060707",
"%  c #070707",
"&  c #060708",
"*  c #070708",
"=  c #070809",
"-  c #07090A",
";  c #080809",
":  c #08090A",
">  c #09090A",
",  c #090A0B",
"<  c #0A0A0B",
"1  c #0A0B0B",
"2  c #0A0B0C",
"3  c #0A0B0D",
"4  c #0A0C0D",
"5  c #0B0C0D",
"6  c #0A0D0E",
"7  c #0C0D0E",
"8  c #0D0E0F",
"9  c #0D0E10",
"0  c #0C0F10",
"q  c #0D0F10",
"w  c #0C0F11",
"e  c #0E0E10",
"r  c #0D1112",
"t  c #0E1012",
"y  c #0F1112",
"u  c #0E1113",
"i  c #0F1213",
"p  c #0F1214",
"a  c #0F1316",
"s  c #101112",
"d  c #101213",
"f  c #101314",
"g  c #111315",
"h  c #121416",
"j  c #131516",
"k  c #131617",
"l  c #141517",
"z  c #111618",
"x  c #131618",
"c  c #121719",
"v  c #131719",
"b  c #151718",
"n  c #151719",
"m  c #13181A",
"M  c #151919",
"N  c #14191B",
"B  c #14191C",
"V  c #17191C",
"C  c #151A1C",
"Z  c #141A1D",
"A  c #151A1D",
"S  c #171A1C",
"D  c #171B1D",
"F  c #171B1E",
"G  c #161D1E",
"H  c #181A1C",
"J  c #1A1C1E",
"K  c #171D20",
"L  c #171E21",
"P  c #181D20",
"I  c #191D20",
"U  c #181D21",
"Y  c #181F21",
"T  c #191F21",
"R  c #1A1E20",
"E  c #1A1F21",
"W  c #181E22",
"Q  c #1C1F20",
"!  c #192023",
"~  c #1C2123",
"^  c #1F2123",
"/  c #1B2326",
"(  c #1B2327",
")  c #1C2124",
"_  c #1C2225",
"`  c #1D2327",
"'  c #1F2326",
"]  c #1F2426",
"[  c #1B2428",
"{  c #1C2428",
"}  c #1C2528",
"|  c #1D2528",
" . c #1D2529",
".. c #1E2428",
"X. c #1E2629",
"o. c #1D262A",
"O. c #1E262A",
"+. c #1F262A",
"@. c #1E272B",
"#. c #1F282C",
"$. c #1F292D",
"%. c gray13",
"&. c #212324",
"*. c #202527",
"=. c #222426",
"-. c #202528",
";. c #232528",
":. c #222529",
">. c #202629",
",. c #22272A",
"<. c #23272A",
"1. c #22272B",
"2. c #22272C",
"3. c #23282A",
"4. c #23282B",
"5. c #23292B",
"6. c #24282B",
"7. c #24292B",
"8. c #20282C",
"9. c #23292C",
"0. c #23292D",
"q. c #212A2D",
"w. c #232A2D",
"e. c #232B2F",
"r. c #25292C",
"t. c #24292D",
"y. c #242A2D",
"u. c #252A2D",
"i. c #242A2E",
"p. c #242B2E",
"a. c #252B2E",
"s. c #252B2F",
"d. c #262B2E",
"f. c #262B2F",
"g. c #232D2F",
"h. c #252C2F",
"j. c #262C2F",
"k. c #242B30",
"l. c #252B30",
"z. c #242C30",
"x. c #252C30",
"c. c #242C31",
"v. c #252C31",
"b. c #242D31",
"n. c #262C30",
"m. c #262C31",
"M. c #272D31",
"N. c #262E31",
"B. c #252D32",
"V. c #272D32",
"C. c #262E32",
"Z. c #272F32",
"A. c #272F33",
"S. c #252F34",
"D. c #262F34",
"F. c #282E33",
"G. c #282F33",
"H. c #282F34",
"J. c #263134",
"K. c #273135",
"L. c #273136",
"P. c #273237",
"I. c #283034",
"U. c #293034",
"Y. c #293134",
"T. c #293035",
"R. c #293135",
"E. c #2A3136",
"W. c #293236",
"Q. c #283237",
"!. c #293337",
"~. c #2A3236",
"^. c #2A3237",
"/. c #2B3237",
"(. c #283238",
"). c #293338",
"_. c #293339",
"`. c #2A3338",
"'. c #2A3339",
"]. c #28333A",
"[. c #283439",
"{. c #2A3438",
"}. c #2B3438",
"|. c #2B3439",
" X c #29343A",
".X c #2A353A",
"XX c #2B353A",
"oX c #2A353B",
"OX c #2A363B",
"+X c #2A373B",
"@X c #2C363B",
"#X c #2C373B",
"$X c #29373C",
"%X c #2B373C",
"&X c #2C363C",
"*X c #2D373C",
"=X c #2C373D",
"-X c #2D373D",
";X c #2D373E",
":X c #2A383E",
">X c #2C383D",
",X c #2C383E",
"<X c #2D393E",
"1X c #2D393F",
"2X c #2E393E",
"3X c #2E393F",
"4X c #2F3A40",
"5X c #2E3B41",
"6X c #2F3B41",
"7X c #2E3C41",
"8X c #2F3D44",
"9X c #303D42",
"0X c #303C43",
"qX c #303D43",
"wX c #303E45",
"eX c #303F45",
"rX c #313F45",
"tX c #314046",
"yX c #324046",
"uX c #324048",
"iX c #324148",
"pX c #334249",
"aX c #33434A",
"sX c #34434A",
"dX c #35444C",
"fX c #37474F",
"gX c #FFD54F",
/* pixels */
"fXfXfXfXfXfXfXfXfXfXfXfXfXfXfXfXfXfXfXfXfXfXfXfXfXfXfXfXfXfXfXfXfXfXfXfXfXfXfXfX",
"fXfXfXfXfXfXfXfXfXfXfXfXfXfXfXfXfXfXfXfXfXfXfXfXfXfXfXfXfXfXfXfXfXfXfXfXfXfXfXfX",
"fXfXfXfXfXfXfXfXfXfXfXfXfXfXfXfXfXfXfXfXfXfXfXfXfXfXfXfXfXfXfXfXfXfXfXfXfXfXfXfX",
"fXfXfXfXfXfXfXfXfX%.fXfXfXfXfXfXfXfXfXfXfXfXfXfXfXfXfXfXfXfXfXfXfXfXfXfXfXfXfXfX",
"fXfXfXfXfXfXfXfX%.gX%.fXfXfXfXfXfXfXfXfXfXfXfXfXfXfXfXfXfXfXfXfXfXfXfXfXfXfXfXfX",
"fXfXfXfXfXfXfXfX%.gX  fXfXfXfXfXfXfXfXfXfXfXfXfXfXfXfXfXfXfXfXfXfXfXfXfXfXfXfXfX",
"fXfXfXfXfXfXfX%.gXgXgX%.fXfXfXfXfXfXfXfXfXfXfXfXfXfXfXfXfXfXfXfXfXfXfXfXfXfXfXfX",
"fXfXfXfXfXfXfX%.gX  gX  fXfXfXfXfXfXfXfXfXfXfXfXfXfXfXfXfXfXfXfXfXfXfXfXfXfXfXfX",
"fXfXfXfXfXfX%.gXgX  gXgX%.fXfXfXfXfXfXfXfXfXfXfXfXfXfXfXfXfXfXfXfXfXfXfXfXfXfXfX",
"fXfXfXfXfXfX%.gXgX  gXgX  fXfXfXfXfXfXfXfXfXfXfXfXfXfXfXfXfXfXfXfXfXfXfXfXfXfXfX",
"fXfXfXfXfX%.gXgXgXgXgXgXgX%.fXfXfXfXfXfXfXfXfXfXfXfXfXfXfXfXfXfXfXfXfXfXfXfXfXfX",
"fXfXfXfXfX%.gXgXgX  gXgXgX  fXfXfXfXfXfXfXfXfXfXfXfXfXfXfXfXfXfXfXfXfXfXfXfXfXfX",
"fXfXfXfX%.gXgXgXgXgXgXgXgXgX  fXfXfXfXfXfXfXfXfXfXfXfXfXfXfXfXfXfXfXfXfXfXfXfXfX",
"fXfXfXfX%.%.%.%.%.%.%.%.      fXfXfXfXfXfXfXfXfXfXfXfXfXfXfXfXfXfXfXfXfXfXfXfXfX",
"fXfXfXfXfXfXfXfXfX%.fXfXfXfXfXfXfXfXfXfXfXfXfXfXfXfXfXfXfXfXfXfXfXfXfXfXfXfXfXfX",
"fXfXfXfXfXfXfXfXfX%.fXfXfXfXfXfXfXfXfXfXfXfXfXfXfXfXfXfXfXfXfXfXfXfXfXfXfXfXfXfX",
"fXfXfXfXfXfXfXfXfX%.fXfXfXfXfXfXfXfXfXfXfXfXfXfXfXfXfXfXfXfXfXfXfXfXfXfXfXfXfXfX",
"fXfXfXfXfXfXfXfXfX%.fXfXfXfXfXfXfXfXfXfXfXfXfXfXfXfXfXfXfXfXfXfXfXfXfXfXfXfXfXfX",
"fXfXfXfXfXfXfXfXfX%.fXfXfXfXfXfXfXfXfXfXfXfXfXfXfXfXfXfXfXfXfXfXfXfXfXfXfXfXfXfX",
"fXfXfXfXfXfXfXfXfX%.fXfXfXfXfXfXfXfXfXfXfXfXfXfXfXfXfXfXfXfXfXfXfXfXfXfXfXfXfXfX",
"fXfXfXfXfXfXfXfXfX%.fXfXfXfXfXfXfXfXfXfXfXfXfXfXfXfXfXfXfXfXfXfXfXfXfXfXfXfXfXfX",
"fXfXfXfXfXfXfXfXfX%.fXfXfXfXfXfXfXfXfXfXfXfXfXfXfXfXfXfXfXfXfXfXfXfXfXfXfXfXfXfX",
"fXfXfXfXfXfXfXfXfX%.fXfXfXfXfXfXfXfXfXfXfXfXfXfXfXfXfXfXfXfXfXfXfXfXfXfXfXfXfXfX",
"fXfXfXfXfXfXfXfXfX%.fXfXfXfXfXfXfXfXfXfXfXfXfXfXfXfXfXfXfXfXfXfXfXfXfXfXfXfXfXfX",
"fXfXfXfXfXfXfXfXfX%.fXfXfXfXfXfXfXfXfXfXfXfXfXfXfXfXfXfXfXfXfXfXfXfXfXfXfXfXfXfX",
"fXfXfXfXfXfXfXfXfX%.fXfXfXfXfXfXfXfXfXfXfXfXfXfXfXfXfXfXfXfXfXfXfXfXfXfXfXfXfXfX",
"fXfXfXfXfXfXfXfXfX%.fXfXfXfXfXfXfXfXfXfXfXfXfXfXfXfXfXfXfXfXfXfXfXfXfXfXfXfXfXfX",
"fXfXfXfXfXfXfXfXfX%.fXfXfXsXfXfXfXfXfXfXfXsXsXfXfXfXfXfXfXfXfXfXfXfXfXfXfXfXfXfX",
"fXfXfXfXfXfXfXfXsX=.fXfXfX0XE.E.T.L.[. X.X,X1XfXfXfXfXfXsXsXfXfXfXfXfXfXfXfXfXfX",
"fXfXfXfXfXfXfXfX0X=./.R.U.2XH.s.y.e.P.OXoX}.}.s.E.@X!.`.-X<XpXdXfXfXfXfXfXfXfXfX",
"fXfXfXfXfXfXfXfX3X  }.F.M.z.v.w.] +.} { {  .I J 3.a.j.h.-X>XwX5XrXpXpXdXfXfXfXfX",
"fXfXfXfXfXsXsXsX<X  f.n.b.$.} Y K K r [ A A U F / O.@.X.Q.'.XX;X0XsXsXdXfXfXfXfX",
"fXfXfXfXfX4X~.~.G.  u.Q 1.c.#.` 1 m a ( c K W < T | q.i.*.-.k.x.N.;X4XaXfXfXfXfX",
"fXfXfXiXiXfXG.N.Z.  ' 9.D x o.N Z K = - : = o 4 0 i  .A i.l.>._.(.7XeXqXuXfXfXdX",
"fXfXfXiXsX8XC.m.U.  1.R K v { m z B & . X p u % c w { C P ..5.2.B.$X:X=XdXfXfXfX",
"fXfXfXdXaXrX{.K.+X  ,.^ >.8.L c N 6 = X o $ * # N ! L E _ G 0.6.6.L.%X8X8XsXfXfX",
"fXfXfX;X&XfXI.A.6X  H <.h l t q i + @ O # @ % 7 y g 3 V S j ;.t.t.^.R.tXdXfXfXfX",
"fXfXfX0X4XfX).{.+X&.:.4.b j s 5 > 2 8 e > 5 , ; 8 9 8 b n ~ <.u.d.^.*XdXfXfXfXfX",
"fXfXfXfXfXfX2X2X}.~.~.|.n.1.7.<.' ,.k d f M k ) p.>.7.7.r.j.j.|.|.yXyXfXfXfXfXfX",
"fXfXfXfXfXfXsXsXiXsXsXtX|.D.V.G.w.w.h.g.J.].S.7XW.C.N.Y.R.#X#X9X9XfXfXfXfXfXfXfX"
};
