/* XPM */
static char *result[] = {
/* columns rows colors chars-per-pixel */
"40 40 5 1 ",
"  c black",
". c #0D1C0E",
"X c #1A361B",
"o c #4CAF50",
"O c #7986CB",
/* pixels */
"OOOOOOOOOOOOOOOOOOOOOOOOOOOOOOOOOOOOOOOO",
"OOOOOOOOOOOOOOOOOOOOOOOOOOOOOOOOOOOOOOOO",
"OOOOOOOOOOOOOOOOOOOOOOOOOOOOOOOOOOOOOOOO",
"OOOOOOOOOOOOOOOOOOOOOOOOOOOOOOOOOOOOOOOO",
"OOOOOOO   OOOO OOOOO O   OOOOOOOOOOOOOOO",
"OOOOOOOOO OOOOO OOOO OOO OOOOOOOOOOOOOOO",
"OOOOOOOOO OOOOO OOO OOOO OOOOOOOOOOOOOOO",
"OOOOOOOOO OOOOOO OO OOOO OOOOOOOOOOOOOOO",
"OOOOOOOOO   OOOO O OOOOO   OOOOOOOOOOOOO",
"OOOOOOOOO OO OOOO  OOOOO OO OOOOOOOOOOOO",
"OOOOOOOOO OOO OOO OOOOOO OOO OOOOOOOOOOO",
"OOOOOOOOO OO OOOO OOOOOO OO OOOOOOOOOOOO",
"OOOOOOOOO   OOO  OOOOOOO   OOOOOOOOOOOOO",
"OOOOOOOOOOOOOOOOOOOOOOOOOOOOOOOOOOOOOOOO",
"OOOOOOOOOOOOOOOOOOOOOOOOOOOOOOOOOOOOOOOO",
"OOOOOOOOOOOOOOOOOOOOOOOOOOOOOOOOOOOOOOOO",
"OOOOOOOOOOOOOOOOOOOOOOOOOOOOOOOOOOOOOOOO",
"OOOOOOOOOO   OOOOOOOOOOOOOOOOOOOOOOOOOOO",
"OOOOOOOOOO  OOOOOOOO   OOOOOOOOOOOOOOOOO",
"OOOOOOOOO  OOOOOOO      OOOOO  OOOOOOOOO",
"OOOOOOOOO  OOOOOO        OOOO   OOOOOOOO",
"OOOOOOOOO  OOOOO  .X. .X. OOOO  OOOOOOOO",
"OOOOOOOOO  OOOO   XoX XoX  OOO  OOOOOOOO",
"OOOOOOOOO  OOO    .X. .X.  OOO  OOOOOOOO",
"OOOOOOOOO  OO              OOO  OOOOOOOO",
"OOOOOOOOO  OO              OOO  OOOOOOOO",
"OOOOOOOOO   O             OOO   OOOOOOOO",
"OOOOOOOOOO               OOO   OOOOOOOOO",
"OOOOOOOOOO              OOO   OOOOOOOOOO",
"OOOOOOOOOOO             OO   OOOOOOOOOOO",
"OOOOOOOOOOOO                OOOOOOOOOOOO",
"OOOOOOOOOOOOO             OOOOOOOOOOOOOO",
"OOOOOOOOOOOOO          OOOOOOOOOOOOOOOOO",
"OOOOOOOOOOOOO  OOOOOO  OOOOOOOOOOOOOOOOO",
"OOOOOOOOOOOOO  OOOOOO  OOOOOOOOOOOOOOOOO",
"OOOOOOOOOOOOO  OOOOOO  OOOOOOOOOOOOOOOOO",
"OOOOOOOOOOOOO   OOOOOO   OOOOOOOOOOOOOOO",
"OOOOOOOOOOOOO   OOOOOO   OOOOOOOOOOOOOOO",
"OOOOOOOOOOOOOOOOOOOOOOOOOOOOOOOOOOOOOOOO",
"OOOOOOOOOOOOOOOOOOOOOOOOOOOOOOOOOOOOOOOO"
};
