/* XPM */
static char *result[] = {
/* columns rows colors chars-per-pixel */
"40 40 19 1 ",
"  c black",
". c #07090A",
"X c gray9",
"o c gray13",
"O c #263238",
"+ c #2D3A40",
"@ c #314047",
"# c #37474F",
"$ c #37484F",
"% c #38484F",
"& c #38494F",
"* c #374750",
"= c #384850",
"- c gray26",
"; c gray38",
": c gray46",
"> c gray62",
", c gray74",
"< c gray88",
/* pixels */
"########################################",
"###X  ###########################X  ####",
"##X,;; #########################X,;; ###",
"## ;:- #########################X;:- ###",
"##X--o ######################### --o ###",
"###.. ###########################..X####",
"####X#############################X#####",
"####...............................#####",
"####.-o.<,.-o.<,.-o.<,.-o.<,.-o.,<X#####",
"####XoX.,>.oX.,>.oX.,>.oX.,>.oX.,>X#####",
"####...............................#####",
"####.<,.-o.<,.-o.<,.-o.<,.-o.<,.-o.#####",
"####.,>.oX.,>.oX.,,.oX.,>.oX.,>.oX.#####",
"####...............................#####",
"####.-o.<,.-o.<,.-o.<,.-o.<,.-o.<,.#####",
"####.oX.,>.oX.,>.oX.,>.oX.,>.oX.,>.#####",
"####...............................#####",
"####.<,.-o.<,.-o.<,.-o.<,.-o.<,.-o.#####",
"####.,>.oX.,>.oX.,>.oX.,,.oX.,>.oX.#####",
"####...............................#####",
"####.#############################X#####",
"####X#############################.#####",
"####.#############################.#####",
"####.#############################X#####",
"####.#############################.#####",
"####X#############################.#####",
"####.#############################.#####",
"####X#############################X#####",
"####X#############################.#####",
"####X#############################X#####",
"####.#############################X#####",
"####.#############################.#####",
"####.#################+++#########.#####",
"####.######OO++++++OO+++++++######.#####",
"#####$$+++O++++++++++++++@@@OO++########",
"###$$&++++++@@@@@@+++++++++++++@O#######",
"####=##++OO@@@@@++++++@@@@@@OOO+########",
"####%######OOO+++++O+++++++O############",
"#####=##################################",
"######$==============***################"
};
