/* XPM */
static char *result[] = {
/* columns rows colors chars-per-pixel */
"100 100 22 1 ",
"  c black",
". c gray8",
"X c gray13",
"o c #2D7530",
"O c #5D4037",
"+ c #6D4C41",
"@ c gray46",
"# c #822307",
"$ c #BF360C",
"% c #EF6C00",
"& c #FF5722",
"* c #AFB42B",
"= c #FFC400",
"- c #8BC34A",
"; c gray62",
": c gray74",
"> c #DAF589",
", c gray88",
"< c #EEEEEE",
"1 c gray98",
"2 c white",
"3 c None",
/* pixels */
"3333333333333333333333333333333333333333333333333333333333333333333333333333333333333333333333333333",
"3333333333333333333333333333333333333333333333333333333333333333333333333333333333333333333333333333",
"3333333333333333333333333333333333333333333333333333333333333333333333333333333333333333333333333333",
"3333333333333333333333333333333333333333333333333333333333333333333333333333333333333333333333333333",
"3333333333333333333333333333333333333333333333333333333333333333333333333333333333333333333333333333",
"3333333333333333333333333333333333333333333333333333333333333333333333333333333333333333333333333333",
"3333333333333333333333333333333333333333333333333333333333333333333333333333333333333333333333333333",
"3333333333333333333333333333333333333333333333333333333333333333333333333333333333333333333333333333",
"3333333333333333333333333333333333333333333333333333333333333333333333333333333333333333333333333333",
"3333333333333333333333333333333333333333333333333333333333333333333333333333333333333333333333333333",
"3333333333333333333333333333333333333333333333333333333333333333333333333333333333333333333333333333",
"3333333333333333333333333333333333333333333333333333333333333333333333333333333333333333333333333333",
"3333333333333333333333333333333333333333333333333333333333333333333333333333333333333333333333333333",
"3333333333333333333333333333333333333333333333333333333333333333333333333333333333333333333333333333",
"3333333333333333333333333333333333333333333333333333333333333333333333333333333333333333333333333333",
"3333333333333333333333333333333333333333333333333333333333333333333333333333333333333333333333333333",
"3333333333333333333333333333333333      33333333        33333333333333333333333333333333333333333333",
"3333333333333333333333333333333333      33333333        33333333333333333333333333333333333333333333",
"33333333333333333333333333333333  ,,,,,,        ;;;;;;;;  333333333333333333333333333333333333333333",
"33333333333333333333333333333333  ,,,,,,        ;;;;;;;;  333333333333333333333333333333333333333333",
"333333333333333333333333333333  ,,,,    22----------    ::  3333333333333333333333333333333333333333",
"333333333333333333333333333333  ,,,,    22----------    ::  3333333333333333333333333333333333333333",
"3333333333333333333333333333  ,,,,        22----------    ::  33333333333333333333333333333333333333",
"3333333333333333333333333333  ,,,,        22----------    ::  33333333333333333333333333333333333333",
"3333333333333333333333333333  <<22        22------------  ::  33333333333333333333333333333333333333",
"3333333333333333333333333333  <<22        22------------  ::  33333333333333333333333333333333333333",
"3333333333333333333333333333  2222  ....  22------------  ::  33333333333333333333333333333333333333",
"3333333333333333333333333333  2222  ....  22------------  ::  33333333333333333333333333333333333333",
"33333333333333333333333333  ----2222..  22------>>>>>>>>;;  3333333333333333333333333333333333333333",
"33333333333333333333333333  ----2222..  22------>>>>>>>>;;  3333333333333333333333333333333333333333",
"333333333333333333333333  oo------222222---->>>>>>>>>>::  333333333333333333333333333333333333333333",
"333333333333333333333333  oo------222222---->>>>>>>>>>::  333333333333333333333333333333333333333333",
"333333333333333333333333  ---------------->>>>>>>>>>,,  33333333333333333333333333333333333333333333",
"333333333333333333333333  ---------------->>>>>>>>>>,,  33333333333333333333333333333333333333333333",
"333333333333333333333333  oo------------>>>>>>>>>>>>  3333333333333333333333333333333333333333333333",
"333333333333333333333333  oo------------>>>>>>>>>>>>  3333333333333333333333333333333333333333333333",
"3333333333333333333333  XXoooo-------->>>>>>>>>>>>>>  3333333333333333333333333333333333333333333333",
"3333333333333333333333  XXoooo-------->>>>>>>>>>>>>>  3333333333333333333333333333333333333333333333",
"3333333333333333333333  oooooooo------>>>>>>>>            333333333333333333333333333333333333333333",
"3333333333333333333333  oooooooo------>>>>>>>>            333333333333333333333333333333333333333333",
"3333333333333333333333  oooooooooooo********  ++++++++OOOO  3333333333333333333333333333333333333333",
"3333333333333333333333  oooooooooooo********  ++++++++OOOO  3333333333333333333333333333333333333333",
"3333333333333333333333  oooooooo--------------            OO  33333333333333333333333333333333333333",
"3333333333333333333333  oooooooo--------------            OO  33333333333333333333333333333333333333",
"3333333333333333333333  ##oooo------------------##&&&&&&$$    33333333333333333333333333333333333333",
"3333333333333333333333  ##oooo------------------##&&&&&&$$    33333333333333333333333333333333333333",
"3333333333333333333333  &&####------------######&&&&&&&&&&##  33333333333333333333333333333333333333",
"3333333333333333333333  &&####------------######&&&&&&&&&&##  33333333333333333333333333333333333333",
"33333333333333333333  &&&&##&&############&&&&##&&&&&&&&&&&&          333333333333333333333333333333",
"33333333333333333333  &&&&##&&############&&&&##&&&&&&&&&&&&          333333333333333333333333333333",
"333333333333333333  ##&&&&##&&&&&&&&&&&&&&&&&&##&&&&&&&&&&&&&&&&&&##          3333333333333333333333",
"333333333333333333  ##&&&&##&&&&&&&&&&&&&&&&&&##&&&&&&&&&&&&&&&&&&##          3333333333333333333333",
"3333333333333333  ##&&&&&&##&&&&&&&&&&&&&&&&&&##&&&&&&&&&&&&&&&&%%&&&&&&&&##    33333333333333333333",
"3333333333333333  ##&&&&&&##&&&&&&&&&&&&&&&&&&##&&&&&&&&&&&&&&&&%%&&&&&&&&##    33333333333333333333",
"3333333333333333  &&&&&&&&##&&&&&&&&&&&&&&&&&&##&&&&&&&&&&&&&&%%==%%&&&&&&&&%%==  333333333333333333",
"3333333333333333  &&&&&&&&##&&&&&&&&&&&&&&&&&&##&&&&&&&&&&&&&&%%==%%&&&&&&&&%%==  333333333333333333",
"3333333333333333  &&$$$$$$##$$$$&&&&######&&&&##&&&&&&&&&&&&%%======%%$$$$%%====  333333333333333333",
"3333333333333333  &&$$$$$$##$$$$&&&&######&&&&##&&&&&&&&&&&&%%======%%$$$$%%====  333333333333333333",
"3333333333333333  &&$$$$$$    $$$$$$$$$$$$$$$$      $$$$$$$$&&%%==%%$$$$$$$$%%==  333333333333333333",
"3333333333333333  &&$$$$$$    $$$$$$$$$$$$$$$$      $$$$$$$$&&%%==%%$$$$$$$$%%==  333333333333333333",
"3333333333333333  XX&&XX  XX    $$$$$$$$$$$$    XX    2222$$$$$$%%$$$$$$$$$$      333333333333333333",
"3333333333333333  XX&&XX  XX    $$$$$$$$$$$$    XX    2222$$$$$$%%$$$$$$$$$$      333333333333333333",
"3333333333333333  ,,,,  XXXXXX  $$$$$$$$$$$$  XXXXXX    111111111111111111111111  333333333333333333",
"3333333333333333  ,,,,  XXXXXX  $$$$$$$$$$$$  XXXXXX    111111111111111111111111  333333333333333333",
"333333333333333333      XX@@XX                XX@@XX                              333333333333333333",
"333333333333333333      XX@@XX                XX@@XX                              333333333333333333",
"3333333333333333333333  XX,,XX  3333333333    XX,,XX    333333    XXXXXX      3333333333333333333333",
"3333333333333333333333  XX,,XX  3333333333    XX,,XX    333333    XXXXXX      3333333333333333333333",
"3333333333333333333333  XXXXXX  333333333333    XX    3333333333    XX      333333333333333333333333",
"3333333333333333333333  XXXXXX  333333333333    XX    3333333333    XX      333333333333333333333333",
"333333333333333333333333  XX  3333333333333333      33333333333333        33333333333333333333333333",
"333333333333333333333333  XX  3333333333333333      33333333333333        33333333333333333333333333",
"3333333333333333333333333333333333333333333333333333333333333333333333333333333333333333333333333333",
"3333333333333333333333333333333333333333333333333333333333333333333333333333333333333333333333333333",
"3333333333333333333333333333333333333333333333333333333333333333333333333333333333333333333333333333",
"3333333333333333333333333333333333333333333333333333333333333333333333333333333333333333333333333333",
"3333333333333333333333333333333333333333333333333333333333333333333333333333333333333333333333333333",
"3333333333333333333333333333333333333333333333333333333333333333333333333333333333333333333333333333",
"3333333333333333333333333333333333333333333333333333333333333333333333333333333333333333333333333333",
"3333333333333333333333333333333333333333333333333333333333333333333333333333333333333333333333333333",
"3333333333333333333333333333333333333333333333333333333333333333333333333333333333333333333333333333",
"3333333333333333333333333333333333333333333333333333333333333333333333333333333333333333333333333333",
"3333333333333333333333333333333333333333333333333333333333333333333333333333333333333333333333333333",
"3333333333333333333333333333333333333333333333333333333333333333333333333333333333333333333333333333",
"3333333333333333333333333333333333333333333333333333333333333333333333333333333333333333333333333333",
"3333333333333333333333333333333333333333333333333333333333333333333333333333333333333333333333333333",
"3333333333333333333333333333333333333333333333333333333333333333333333333333333333333333333333333333",
"3333333333333333333333333333333333333333333333333333333333333333333333333333333333333333333333333333",
"3333333333333333333333333333333333333333333333333333333333333333333333333333333333333333333333333333",
"3333333333333333333333333333333333333333333333333333333333333333333333333333333333333333333333333333",
"3333333333333333333333333333333333333333333333333333333333333333333333333333333333333333333333333333",
"3333333333333333333333333333333333333333333333333333333333333333333333333333333333333333333333333333",
"3333333333333333333333333333333333333333333333333333333333333333333333333333333333333333333333333333",
"3333333333333333333333333333333333333333333333333333333333333333333333333333333333333333333333333333",
"3333333333333333333333333333333333333333333333333333333333333333333333333333333333333333333333333333",
"3333333333333333333333333333333333333333333333333333333333333333333333333333333333333333333333333333",
"3333333333333333333333333333333333333333333333333333333333333333333333333333333333333333333333333333",
"3333333333333333333333333333333333333333333333333333333333333333333333333333333333333333333333333333",
"3333333333333333333333333333333333333333333333333333333333333333333333333333333333333333333333333333",
"3333333333333333333333333333333333333333333333333333333333333333333333333333333333333333333333333333"
};
