/* XPM */
static char *result[] = {
/* columns rows colors chars-per-pixel */
"50 50 22 1 ",
"  c black",
". c gray8",
"X c gray13",
"o c #2D7530",
"O c #5D4037",
"+ c #6D4C41",
"@ c gray46",
"# c #822307",
"$ c #BF360C",
"% c #EF6C00",
"& c #FF5722",
"* c #AFB42B",
"= c #FFC400",
"- c #8BC34A",
"; c gray62",
": c gray74",
"> c #DAF589",
", c gray88",
"< c #EEEEEE",
"1 c gray98",
"2 c white",
"3 c None",
/* pixels */
"33333333333333333333333333333333333333333333333333",
"33333333333333333333333333333333333333333333333333",
"33333333333333333333333333333333333333333333333333",
"33333333333333333333333333333333333333333333333333",
"33333333333333333333333333333333333333333333333333",
"33333333333333333333333333333333333333333333333333",
"33333333333333333333333333333333333333333333333333",
"33333333333333333333333333333333333333333333333333",
"33333333333333333   3333    3333333333333333333333",
"3333333333333333 ,,,    ;;;; 333333333333333333333",
"333333333333333 ,,  2-----  : 33333333333333333333",
"33333333333333 ,,    2-----  : 3333333333333333333",
"33333333333333 <2    2------ : 3333333333333333333",
"33333333333333 22 .. 2------ : 3333333333333333333",
"3333333333333 --22. 2--->>>>; 33333333333333333333",
"333333333333 o---222-->>>>>: 333333333333333333333",
"333333333333 -------->>>>>, 3333333333333333333333",
"333333333333 o------>>>>>> 33333333333333333333333",
"33333333333 Xoo---->>>>>>> 33333333333333333333333",
"33333333333 oooo--->>>>      333333333333333333333",
"33333333333 oooooo**** ++++OO 33333333333333333333",
"33333333333 oooo-------      O 3333333333333333333",
"33333333333 #oo---------#&&&$  3333333333333333333",
"33333333333 &##------###&&&&&# 3333333333333333333",
"3333333333 &&#&######&&#&&&&&&     333333333333333",
"333333333 #&&#&&&&&&&&&#&&&&&&&&&#     33333333333",
"33333333 #&&&#&&&&&&&&&#&&&&&&&&%&&&&#  3333333333",
"33333333 &&&&#&&&&&&&&&#&&&&&&&%=%&&&&%= 333333333",
"33333333 &$$$#$$&&###&&#&&&&&&%===%$$%== 333333333",
"33333333 &$$$  $$$$$$$$   $$$$&%=%$$$$%= 333333333",
"33333333 X&X X  $$$$$$  X  22$$$%$$$$$   333333333",
"33333333 ,, XXX $$$$$$ XXX  111111111111 333333333",
"333333333   X@X        X@X               333333333",
"33333333333 X,X 33333  X,X  333  XXX   33333333333",
"33333333333 XXX 333333  X  33333  X   333333333333",
"333333333333 X 33333333   3333333    3333333333333",
"33333333333333333333333333333333333333333333333333",
"33333333333333333333333333333333333333333333333333",
"33333333333333333333333333333333333333333333333333",
"33333333333333333333333333333333333333333333333333",
"33333333333333333333333333333333333333333333333333",
"33333333333333333333333333333333333333333333333333",
"33333333333333333333333333333333333333333333333333",
"33333333333333333333333333333333333333333333333333",
"33333333333333333333333333333333333333333333333333",
"33333333333333333333333333333333333333333333333333",
"33333333333333333333333333333333333333333333333333",
"33333333333333333333333333333333333333333333333333",
"33333333333333333333333333333333333333333333333333",
"33333333333333333333333333333333333333333333333333"
};
