/* XPM */
static char *_411413ac44f453fbbd13fafd03a87fc03bPmHPRX0mVkTsw[] = {
/* columns rows colors chars-per-pixel */
"16 16 2 1 ",
"  c black",
". c white",
/* pixels */
"                ",
" .            . ",
"                ",
"                ",
"                ",
"                ",
"    ..    ..    ",
"      ....      ",
"      ....      ",
"    ..    ..    ",
"                ",
"                ",
"                ",
"                ",
" .            . ",
"                "
};
