/* XPM */
static char *result[] = {
/* columns rows colors chars-per-pixel */
"100 100 6 1 ",
"  c black",
". c #37474F",
"X c #FF6F00",
"o c #F57F17",
"O c #FF8F00",
"+ c white",
/* pixels */
"....................................................................................................",
"....................................................................................................",
"....................................................................................................",
"....................................................................................................",
"................................................  ..................................................",
"................................................  ..................................................",
"..............................................  OO  ................................................",
"..............................................  OO  ................................................",
"..............................................  OO  ................................................",
"..............................................  OO  ................................................",
"..............................................  OO  ................................................",
"..............................................  OO  ................................................",
"............................................  OOOOOO  ..............................................",
"............................................  OOOOOO  ..............................................",
"............................................  OOOOOO  ..............................................",
"............................................  OOOOOO  ..............................................",
"............................................  ooOOOO  ..............................................",
"............................................  ooOOOO  ..............................................",
"..........................................  ooooooOOOO  ............................................",
"..........................................  ooooooOOOO  ............................................",
"..........................................  ++++++++++  ............................................",
"..........................................  ++++++++++  ............................................",
"..........................................  ++++++++++  ............................................",
"..........................................  ++++++++++  ............................................",
"........................................  ++++++++++++++  ..........................................",
"........................................  ++++++++++++++  ..........................................",
"........................................  ++++++++++++++  ..........................................",
"........................................  ++++++++++++++  ..........................................",
"........................................  ++++++++++++++  ..........................................",
"........................................  ++++++++++++++  ..........................................",
"......................................  ++++++++++++++++++  ........................................",
"......................................  ++++++++++++++++++  ........................................",
"......................................  XXXXooooooooooooOO  ........................................",
"......................................  XXXXooooooooooooOO  ........................................",
"......................................  XXXXooooooooooooOO  ........................................",
"......................................  XXXXooooooooooooOO  ........................................",
"......................................  XXXXooooooooooooOO  ........................................",
"......................................  XXXXooooooooooooOO  ........................................",
"....................................  XXXXXXooooooooooooOOOO  ......................................",
"....................................  XXXXXXooooooooooooOOOO  ......................................",
"....................................  XXXXXXooooooooooooooOO  ......................................",
"....................................  XXXXXXooooooooooooooOO  ......................................",
"....................................  ++++++++++++++++++++++  ......................................",
"....................................  ++++++++++++++++++++++  ......................................",
"....................................  ++++++++++++++++++++++  ......................................",
"....................................  ++++++++++++++++++++++  ......................................",
"....................................  ++++++++++++++++++++++  ......................................",
"....................................  ++++++++++++++++++++++  ......................................",
"..................................  ++++++++++++++++++++++++++  ....................................",
"..................................  ++++++++++++++++++++++++++  ....................................",
"..................................  ++++++++++++++++++++++++++  ....................................",
"..................................  ++++++++++++++++++++++++++  ....................................",
"..................................  ++++++++++++++++++++++++++  ....................................",
"..................................  ++++++++++++++++++++++++++  ....................................",
"..................................  XXXXXXXXXXXXoooooooooooooo  ....................................",
"..................................  XXXXXXXXXXXXoooooooooooooo  ....................................",
"..................................  XXXXXXXXXXXXXXoooooooooooo  ....................................",
"..................................  XXXXXXXXXXXXXXoooooooooooo  ....................................",
"................................  XXXXXXXXXXXXXXXXooooooooooooOO  ..................................",
"................................  XXXXXXXXXXXXXXXXooooooooooooOO  ..................................",
"................................  XXXXXXXXXXXXXXXXXXooooooooooOO  ..................................",
"................................  XXXXXXXXXXXXXXXXXXooooooooooOO  ..................................",
"................................  XXXXXXXXXXXXXXXXXXooooooooooOO  ..................................",
"................................  XXXXXXXXXXXXXXXXXXooooooooooOO  ..................................",
"................................  XXXXXXXXXXXXXXXXXXXXoooooooooo  ..................................",
"................................  XXXXXXXXXXXXXXXXXXXXoooooooooo  ..................................",
"..............................  XXXXXXXXXXXXXXXXXXXXXXooooooooooXX  ................................",
"..............................  XXXXXXXXXXXXXXXXXXXXXXooooooooooXX  ................................",
"..............................  XXXXXXXXXXXXXXXXXXXXXXXXooooooooOO  ................................",
"..............................  XXXXXXXXXXXXXXXXXXXXXXXXooooooooOO  ................................",
"..............                XXXXXXXXXXXXXXXXXXXXXXXXXXXXooooooOOOO                ................",
"..............                XXXXXXXXXXXXXXXXXXXXXXXXXXXXooooooOOOO                ................",
"............  XXXXXXXXXXXXXXXXXXXXXXXXXXXXXXXXXXXXXXXXXXXXXXooooooOOOOOOOOOOOOOOOOOO  ..............",
"............  XXXXXXXXXXXXXXXXXXXXXXXXXXXXXXXXXXXXXXXXXXXXXXooooooOOOOOOOOOOOOOOOOOO  ..............",
"..........  XXXXXXXXXXXXXXXXXXXXXXXXXXXXXXXXXXXXXXXXXXXXXXXXXXooooooooooooOOOOOOOOOOOO  ............",
"..........  XXXXXXXXXXXXXXXXXXXXXXXXXXXXXXXXXXXXXXXXXXXXXXXXXXooooooooooooOOOOOOOOOOOO  ............",
"..........  XXXXXXXXXXXXXXXXXXXXXXXXXXXXXXXXXXXXXXXXXXXXXXXXXXXXXXXXooooooooXXXXXXOOOO  ............",
"..........  XXXXXXXXXXXXXXXXXXXXXXXXXXXXXXXXXXXXXXXXXXXXXXXXXXXXXXXXooooooooXXXXXXOOOO  ............",
"..........    XXXXXXXXXXXXXXXXXXXXXXXXXXXXXXXXXXXXXXXXXXXXXXXXXXXXXXXXXXXXXXXXXXXXOO    ............",
"..........    XXXXXXXXXXXXXXXXXXXXXXXXXXXXXXXXXXXXXXXXXXXXXXXXXXXXXXXXXXXXXXXXXXXXOO    ............",
"............                                                                          ..............",
"............                                                                          ..............",
"....................................................................................................",
"....................................................................................................",
"....................................................................................................",
"....................................................................................................",
"....................................................................................................",
"....................................................................................................",
"....................................................................................................",
"....................................................................................................",
"....................................................................................................",
"....................................................................................................",
"....................................................................................................",
"....................................................................................................",
"....................................................................................................",
"....................................................................................................",
"....................................................................................................",
"....................................................................................................",
"....................................................................................................",
"...................................................................................................."
};
