/* XPM */
static char *result[] = {
/* columns rows colors chars-per-pixel */
"40 40 11 1 ",
"  c #0C1214",
". c #182124",
"X c #263338",
"o c #37474F",
"O c #EF6C00",
"+ c #F57C00",
"@ c #FF8F00",
"# c #FF9800",
"$ c #EDDABE",
"% c #FFF3E0",
"& c white",
/* pixels */
"oooooooooooooooooooooooooooooooooooooooo",
"oooooooooooooooooooooooooooooooooooooooo",
"oooooooooooooooooooooooooooooooooooooooo",
"oooooooooooooooooooooooooooooooooooooooo",
"oooooooooooooooooooooooooooooooooooooooo",
"oooooooooooooooooooooooooooooooooooooooo",
"oooooooooooooooooooooooooooooooooooooooo",
"oooooooooooooooooooXoooooooooooooooooooo",
"ooooooooooooooooooo.oooooooooooooooooooo",
"ooooooooooooooooooX#.ooooooooooooooooooo",
"oooooooooooooooooo.+.ooooooooooooooooooo",
"oooooooooooooooooX+##.oooooooooooooooooo",
"ooooooooooooooooo.....oooooooooooooooooo",
"ooooooooooooooooX$%&&&.ooooooooooooooooo",
"oooooooooooooooo.$$$$%.ooooooooooooooooo",
"ooooooooooooooo.........oooooooooooooooo",
"ooooooooooooooo.++@@@@@.oooooooooooooooo",
"ooooooooooooooX..........ooooooooooooooo",
"oooooooooooooo.$$$$%%%%%.ooooooooooooooo",
"oooooooooooooX$$$$$$$$%%%.oooooooooooooo",
"ooooooooooooo.............oooooooooooooo",
"ooooooooooooX@@@@@########.ooooooooooooo",
"oooooooooooo.+@@@@@@@@####.ooooooooooooo",
"ooooooooooo.+++@@@@@@@@@@##.oooooooooooo",
"ooooooooooo.OO+++@@@@@@@@@#.oooooooooooo",
"ooooooooooXOOOO++++@@@@@@@@#.ooooooooooo",
"ooooooooooXOOOOOOOOOOOOOOOOO.ooooooooooo",
"oooooooooo.OOOOOOOOOOOOOOOOO.ooooooooooo",
"oooooooooX.      .............oooooooooo",
"ooooooooo           ..........oooooooooo",
"oooooooooooooooooooooooooooooooooooooooo",
"oooooooooooooooooooooooooooooooooooooooo",
"oooooooooooooooooooooooooooooooooooooooo",
"oooooooooooooooooooooooooooooooooooooooo",
"oooooooooooooooooooooooooooooooooooooooo",
"oooooooooooooooooooooooooooooooooooooooo",
"oooooooooooooooooooooooooooooooooooooooo",
"oooooooooooooooooooooooooooooooooooooooo",
"oooooooooooooooooooooooooooooooooooooooo",
"oooooooooooooooooooooooooooooooooooooooo"
};
