/* XPM */
static char *_d84fb7ef99d4460be2b7db5a78382fdBwKCwkUBTKpXuqlS[] = {
/* columns rows colors chars-per-pixel */
"64 64 88 1 ",
"  c #CE4607",
". c #CF4807",
"X c #CD4508",
"o c #CF4C0A",
"O c #D04707",
"+ c #D14907",
"@ c #D04708",
"# c #D34D09",
"$ c #D94F09",
"% c #CF510C",
"& c #D5530B",
"* c #D9550A",
"= c #D65A0E",
"- c #D95C0D",
"; c #DB5C0C",
": c #DA5C0D",
"> c #D85D0E",
", c #DC5C0C",
"< c #DC5D0C",
"1 c #DE5C0C",
"2 c #DD5E0C",
"3 c #DC5E0D",
"4 c #DE5F0E",
"5 c #D35B10",
"6 c #D45C11",
"7 c #D55E10",
"8 c #D45F12",
"9 c #D85F10",
"0 c #D9600F",
"q c #DB610F",
"w c #DE610D",
"e c #DC610F",
"r c #DD630F",
"t c #DF620E",
"y c #DF640F",
"u c #DF650F",
"i c #D76010",
"p c #D56213",
"a c #D56413",
"s c #D76413",
"d c #D66513",
"f c #D76715",
"g c #D66716",
"h c #D86311",
"j c #DA6211",
"k c #D96313",
"l c #DB6511",
"z c #D96613",
"x c #DB6713",
"c c #DC6410",
"v c #DD6712",
"b c #DC6713",
"n c #D76916",
"m c #D76917",
"M c #DF6911",
"N c #DD6912",
"B c #DF6B12",
"V c #DF6B13",
"C c #DB6814",
"Z c #D96A15",
"A c #D86A16",
"S c #DB6B16",
"D c #DF6B14",
"F c #DA6D17",
"G c #DD6C14",
"H c #DE6D15",
"J c #DD6C16",
"K c #DC6F17",
"L c #DF6E16",
"P c #DA6E18",
"I c #DE7117",
"U c #DD731A",
"Y c #DE7A1D",
"T c #E06710",
"R c #E06B12",
"E c #E06E13",
"W c #E06C14",
"Q c #E06E15",
"! c #E06F16",
"~ c #E07116",
"^ c #E17216",
"/ c #E07519",
"( c #E17B1C",
") c #DF7E20",
"_ c #E3801F",
"` c #DF8121",
"' c #E28422",
"] c #E48924",
/* pixels */
"&=*&===->sWDsj-j---**+##O+++OOO +#**=9jbyIInnngaaniq;&#.+#***1**",
"33--3q--jCHQffjjr3-***$#++OOXXXO+***1=rbGGHFnGapaiiiq&###+O$#**&",
"rrrryRbjfQ~RzRRrr21***$$$+O+@XX+#$***=3TGMIdda88>p=q-&#+##*&**;;",
"3ryTyyRbVHQfzbrr2;;*******#$+@X+#***$*r-yzqq=p======&&***##***;2",
"3TbTTRERbDRrryr-;;********##.X+#$*$+#*11>====%=%%8>==&&&#*#***1;",
"TTbWRQERRRbzbTr31-***2*&*#&.XXX+$$$###**>&&&==8==>>>;=&&*******3",
"3RRQRQ~QVVb3r-31****2;&;&&o.oXXXO$@$@@#&&&%=%=&%==>>==*&*&**+**2",
"=-bRQ~IHHVRb---*******=&&o&&&#XXO#$@#@##&%&&%&&&&>>==&&#&&&*#&*&",
"=idB~^IEHHQr--**#&#**&&==&&&%o oOO+##$#+&&&===&&&>-=>%=%&&&&&&#&",
"ihMIIIU~HHf--=*###&##&>q-===&o.XO$$$$****9-r>q=i=i-=>==&&=&&o&&=",
"rNMIY^UIWrq==&&#**&&&=qyyq==&&#+#$*$**133rbbqq>=qrrriiq-&%&&&&8=",
"NrGGIGGGzq=&&#&&&&o&&iqyr-==&o+o$**$**13bRRbpq=>q-rrVzz=&o%%#&=-",
"rrNGzyzrqj*&&&&&==&&>qdyp==&%&o#$**$*-3rrbVzq==&=qqyRbr=8ooo#&=6",
"iiydizrdb-==&&&&q-q>pzyqz=&oo#&#$$#$*-rrrbbz=&==;qrVEj-&oo&o#&&-",
"==iiz-=i-=*=====qij>zzdz=%&o+&#* +#+*1--jj>p===&&;rrz68%oo#&oo#=",
"&====&&&&*=&====iizddzddp5==&&&+ +**&*=&-jj==%%&%=iq>5&ooo&#oo##",
"o&&&=&%##&*==-iidGIIFdGdfzr=&&O+++++&&&====%&&&o#&;q;-=+#&&*&&oo",
"&%=&*&*&##*=>qhhGIUYYUUUIHb-&&***+*****-=&=&ooooo&&;;;&$&&&&*&&&",
"&&==*&&&#.&==irAnUY`___YU/H9&==-*$**;*&&&&&&&o..+$22;2&&&--&=;-=",
"==&=*&&&$+**yqNGIU`_]]__(IW6&=-&**;**;**&%&#oo#.&+&1*2*&-31;>p-&",
"=ie***&&+&&;qNNIU__]]]]`(UHj=&&*;;1;*;**&&oo#&##++#*;*-;-qqzzq>>",
"ihhi;&&+++*1ihrIU_]]]`]`YIQf96*11;1;;1**&&&##**++++#*;;;rjrsVz>d",
"rreq=*&&++&*;iirGY`_]'``YPWb=&*3;;1;;*-;*&&&*#*#+ .$**qqbbCCHFCC",
"AAqiq&&++&&**whqdIYY``YUPDz9=&&&**1;;=1;-1-&-&#. ..#&=;qjEHIIIIn",
"hddr0&%.+$***wwiinnUUPUPsdp=&&&#**--r---333***#.##*#&=qzbI//U~UQ",
"Ghdie=oo+***;w;&>adnUPPUmp&&&*=-2ybTrjrRbTr=&*o.##&--;GI~((_((UI",
"Iari**&#&**2;;e&8ipdCPIHz=o%&*-3ryVHQ~HHQR-=-*##+&&=jVH~((__((UU",
"INri==&$$****=;===88pCCdp=%&#*1-RHI/~(((~~Vj=&&.##&-jzI(/(((((U~",
"GrMeei*&&$**2$=&&=8=pq>>=&##&&=bzU(((___(Iz66&&&oo&-rVHIYYUUUIII",
"IGMMww2;$2**;*&&===>p=8==&o#&=9zDHY']]'_YIj9>&&&&&&-VVIUUYUnIHCG",
"GBMyw;w****&*&=&=iiij=>>oo#&;=qVPUY']]](YNp>=&&&=&=6zzCIUUnFFCdH",
"rMMyww;****&&&=i=idzjjp&o&&&&-jzDY)]]]'(FFzj8==*=;p-pHFNIICdnzdz",
"qqyqwq**=&&%&&=ifCbfzj5&#&*#*96nPY'']]'(PDfj999*=j99bVHNCUCFzNfp",
"qqww;=&*;&&&==>pbCQPCj688&&==9zCU)']]')U~DkjrR3==31jyzzbNCGGCNHy",
"Myw;;**;&;=&==>aQICPUCDn6--6-9zCUY)']'((WRj9193113bTzrqzszGIIyGG",
"Mrwi;;;*=;>&==ppCIPUUYUJzj--=8zCUY)'((/~TR--*9---1TybVp6pnGIHGGV",
"yyri;&***;===8=pmFPUU)YUIz6>==pdPYYY(//Qb-3&&#&*33rybRz-qzE~I~EM",
"Mqwq*&&&&;&====pCUUY)`')UD88-=pdJP//Q/QT3-*$&#+&33ryybz->jGIIGMM",
"ww&2&&#$&$&&=&66nnPY']'`Uz>6q>>dkmJCbbT9=-*#*$$$*13yTR36dqGGHzMy",
"qq;&&&#oo#&&%%=pdnPY)`)YC6dyrqzqk9966T9*&*$$$*$$*=3rybr-rdHHzNdy",
"ie=&*&#.+&+&&+=%8nUUY)UPFsCbrr>=66=&8=*#&*$$+$$++;r-yy6-iFNFdzzr",
"q;=&###*&+&&&&&=psUYYUUPCNHzr31=*66&&#+#**$#$+@+$*1=-==jrGCFdzVz",
"q=&&&&**$&&+&&&=p6FUUUUPIdzyr;===&&&*###$$$$+@$@$*-*>=6qGAFnmPHN",
"ai=&&&*&1*+&&&&*=8CUUUPPNz-q-2--&&&#++++$$$$$O@@#$*&**8>NCIFCsUs",
"NVj>=;***&+&#**=&ybRIUHziq->3--==*& o#+##$$$$@#++$***&66CmUPUPPP",
"PFdi==*;*&&+***=23ybHQHjqdyrr;==&&o###$$$#$$$#+$$#***=qjUU)))YYP",
"UPd=>>;;*&##*&*==3rrbbj-qrqy-;==&#&&*&+##$#$$$+@++*;6=6pCU))``)P",
"UPnp=>=&=&$#&***&2y323b-ryyyyq>&=&&&###+@$@$$$#@$+*&&&&psm)```))",
")PP8======&&&&***;wwwwq=;ryqqq=&=-=*&*#.+#$###$++&&&&&&==pUU```)",
"UPggppg>q>=&&#*=*;;;;wr=rNrNj-==3-2-3***+#*#****$#++$*-qdnnU```)",
")UPPnHCz>>=&%&&**;;ewe;0yMGybr>>--=1=3*&*##**********;r-GzHCYY)Y",
"YU)UUUFCp>&&&**;*&;0;i=;izzNzp>=-&&**1*&****==;-1**1*;1;yzzdCUYY",
"UY((UInsi%===;*;;*=;==iaNGzVrz>==&o&&&&*&*#&=-9=**=****1->>dpnUU",
"Y`_(UICdi=eqq;w;e&=eiihGGGzdzr>>&o&#&o#&&&&=&9b2-****&1*3>-p8pFU",
"UY((UIGNdiqywwqw;eihrdhrFCNddz->&ooo&o&==*6=9jbbq*&*&&*$*&&==5dI",
"VCHIUHCdaryywr>;*=irhNdadzzpq>q=&&oooo&&&&6jjjzj&=&#+++++#&&%==r",
"=idaNaairhyyi>;==iwiiraadnCji-=&&&&#&&&6==9z-zf>---&++O X+O%&==5",
"==>8aiiihrGyq>>qqqqqiiaNzCCRzr-====&=6jizdzpfdsfzr2-*+O$**#&&&==",
"=&=====prrrdi=iyqqiq%=iibbRbTT2;-=&&=zGEVzCmfnPIHVy-*#+****$%&%=",
"&=%o%&==iii>==yyqyqq%&iizVbTTrr133-&-WHQUUUmCPIIHbq-$++****3===%",
"%%&o%=%====>ihNrMyq-&&=--fTrr1111=-=-VHHI(ICnPUIIQbr*#&****1-;-&",
"%&&%%&====adhrrGGyq&%#&=&&31211;*-=-jzbHUUYPPPYU/~Tr1+$**#1132-*",
"%&&=&%&===arGhdGV>==&oo#$#**3******--zDCUPPPUUYUIQRy2&$****113-*",
"#&=&&==%=piNGNhyq>*=##o ###$*###++&=-bHCCnPPPPIPCzjr*&++***123-="
};
