/* XPM */
static char *result[] = {
/* columns rows colors chars-per-pixel */
"64 64 37 1 ",
"  c #CF4607",
". c #CF4907",
"X c #CD4608",
"o c #CF4B09",
"O c #D04607",
"+ c #D14A07",
"@ c #D24708",
"# c #D34D09",
"$ c #D84F09",
"% c #CF500B",
"& c #D5540B",
"* c #D9540A",
"= c #D65A0E",
"- c #DA5C0D",
"; c #D55E10",
": c #D85F10",
"> c #DC610F",
", c #D66312",
"< c #DB6411",
"1 c #D76916",
"2 c #DC6B14",
"3 c #D76B18",
"4 c #DA6F18",
"5 c #DE7117",
"6 c #DD7319",
"7 c #DE7A1C",
"8 c #E06711",
"9 c #E06D14",
"0 c #E17216",
"q c #E07619",
"w c #E17B1C",
"e c #DF7E20",
"r c #E07F20",
"t c #E3821F",
"y c #DF8121",
"u c #E28422",
"i c #E48A25",
/* pixels */
"=-*&--&;;<606646652>-=&$o######X++*#***==>,,=&=%%;&=*$oo+$&----=",
"---=--:;<20q6666022>--*&##XoXXXX+**&**-->>-=;=&%;&&;-&++#+#$&*--",
">>>>:8<<<9q66qqq008<>--*&&##+XXX$$****->>>>==;%;;&&;=&&$#&&$**--",
"-->>889<20q25q00298<>>--;-&&#o@@#**$+$--->>=%%&%&&&-;&&&&**&-*-*",
"-><88899520250028>>>>>>=-:=&oX@#$$$+$**->-*&%%=%&;-;::;*;*****--",
">>8999q0000250982>>><8<>:;=&oXX#$$$$@+***&&====%;,1<2<<;-;*****-",
">889qqwwqw05222>>>>>82>2:;&$&oXX@#$@@@+$=%%%==&=,<222<,:::-**$*-",
"*894wwrwrwwq29<---->>>2<<;;;&%XX@++@+++++%%=%==,,12221,,::;&$***",
";:16rriuuuwq92<-&*=--,<<,,==%%. @++$$$++$&&=>,=,,265611,:,;&&&%&",
":22qruiiiur44<;*&=&===<222,,&o. @+$$$$$$$*->>>,<15656641,,:&&&&;",
"<96ruiiiur742::&*=&==,205>,==%+.@$$$$**-*->><<<1577777761;;&&&==",
"<29qrruurw41,;&;*&%%=>222>==&&%.#$$$$***->>>><,<577uty75:;%&&$=;",
":84q677r763,;;&==&&==><,,==&%#+.$*$$$**--*>=>=,,277tut711%%%%&=:",
"::<94666762<<&&&>=>*>,>,,=%o%###+++$$****-=>=&,<25wtu761;;;%%#*=",
"&;;,2<1122<<<;&;===&===,=%%%%+&#++++$**$***=====,5qw763,;%;&%X#$",
"$&==:;=;;:<=--&&=====>====&&%&*+++$$*###***%%&=,=2q0633%;;&&#oXo",
"o#=&==&&&====-===-->,,==>>,%%&&++.$$*####*#%o&=&=,2502>====&#&..",
"##$=&&==&&*==*=-,>2<<<2<<<>=&&&=*#**&*&*&%##%.%&=,200<>>==**&&$%",
"#o&&*&&&&o**-=-==>22055229>===>*>**->**##%#&#.%%&>>8<8--=--*&-*&",
"&&#=&&#$+.&*---->,25000592,,&,>=>>>->-**#++%###&&&->>>>----&**&%",
"&*&&&$##++$*---:>95q555502,>==>>>88>>-***#%..**#&&&=----*>=*==&*",
"&-*=*&$#+.&**-><<9qqq7q7622<,>>><288>>-*&*#$&##&##$&---->--*-*#=",
"*=**&&$+@++**-*;<557w775522<==>>>8>>>>>***&****#o +&*-*->>=>-===",
"*===*$++@#$$*--;>155777522,>====>>88>>>>>>*&*&&#Xoo#$&*-&>>>>>>=",
"===&&*. ++***--&;,16666331,===&&>>>>>>>>>>>>&&#+#$$&#&,>>><>>>>=",
"===&&&+.+$**----;,13647641=&&>>>>>8><>>><8>>>&#%#&&&==><2<8202>>",
">&=&*#+++$$*-->=<11347764,=%&==>><82>9999<>>=&&%%#&=>><9990099><",
">>==**$$$**----,,11346751,=%&>*>>889900902<>>&&&%&&=>>99909099<<",
">>>>>******->>,,11346451<,=%**=><<92900q59<;==&&#%&><<2505112,2>",
"2>8>>>-***-=>>,,1443631<,%%&&=*>>>95qq005<>>,==&&&&><99q00111>>2",
">8>8>>->>--=,<114666641,&%&*&=->>><500t92<,==&&==&=,1240661,,>>,",
">28>>>>**>->,156677764,=%%%#*&*>=;<<0059>,=,,=====>>,56466411,<,",
">>>>>>=*=>=,13367ye761,&#o$+$-&&=<2<529<>>>>=====>>>25554765111,",
"29>>>=>>>,,133yyyye75,=&&&#&&*&&><<9999<<>>>>>>=-><>256766752552",
"922>>=>>><33677yyi7661,=&&&*&&&;=><599<<>>--->>=->>22215477wq502",
"0><>>>=>,243367yyy74522>==&$&&&=,=<<<<>>--**&***->>255124677wq00",
"99>>>==>><2544777763122<-=&$o#&&&>>>>>>>-***$+%$*>>88021265twwt0",
"09><>>>=>2<134367464222>-&o##$&&==,>>>>***$$%#+$*--88921257ttqq0",
"9<<<==*==,<<11111333222>=&&#&&&&&=*=&&-**$*+**$+*-->80<215t77690",
"<<>>*==&==,<,,111,112,>=&#&=-&**&%&&***$+$$$+$$$$*->><<>14550212",
"<<>&===*&=>>,=,;,,2,,,=*&&&--*&&&#&%$&#+$$$$@$$@+**->>=>,225122,",
"<<,=&==&&=&======,,<,===;&:---**&&&#%+#+$*$@$@@@+***===>,22,,222",
">,&&=>>=>&&=======,>,==*-*-----*=&&&$o+$$$$$@@@@+*$&**&=<,<2,,<<",
">>>&=*>*>*&&&=&====>->==--*--->:*&&%%+++$$$$$@O@+$*###%=>,<,,,,>",
",>>=*>&>*=*&*&***-->>>--*--:>>-,>==%%%#+$$$++++@+$$$##&==,<,>>,=",
",>>,>=>*>*#&&**-*-->>>-=-><<<2<<1=%=&%#$+$$*$$+@++$$#*#&>><,,,,,",
"=,=&=>=*&&#&&****---->--<<292222,=;=-*&$$$#*$$$@++$$*#&&==>,<2,,",
",,,&&*&=&*#.*&*$**-*-->-<9990621<11>=*&%##$#$$$O++*$###%%&>>22,=",
",==%%=&%&&&##*#***--->>>>2055661525>>-*##$&$$**$+#$+$+++&%=,,<<,",
">,==%&==*&*&.$*&***-->>-<5qw774675522>-*&&&-**--*##*$****=&>,222",
"2,,=&=,=>*%#+.*****-->-><5qw77666622<>--**&------*******--==>222",
"211,,>==&%..#&#$$*---**820q77776621<>>--=&&-<<<:>--**--->>==,122",
"555<<,=%%.#$*&**&*&&*&=,256777662,;===&====-<<1<>>--***->==,,,12",
"q009>=&&%.**&*>*-*&*=&=,256577661;;;&&&====><<22>>--**-*-*>>,,25",
"0q99>>&&&&*>-*--***-==&,251557551;&%&%%&*==,1299>>==*&***=,,,116",
"222>>,&&&&--->--==-==>;;,<215451,;;%&o%&&==><221,=*&&$+#.===1112",
",,,,==&&*==-*=>=;::--;;&;142222<;=&%&&o&&&=;;<<;-;-*$#++%&=,,111",
",,===&=*==>>>,>><<-:=&;;<2206222<-&&&;&&=&:;;=;-<:--&X+&--=,1112",
"<,==&&%=>=>>,>,22<<:&&;;<220558><-=&*----=;&=;<<8-:*&+$*-><>1111",
",=%%%%&%&>>,,,2990<:&%;;:2299988>-&&&->>-<;&&;:<:--*$#&**><9262,",
",==%%%=====,,565q04<&&=;-<288888--*$&---:>:;&=-:8>-*$+$*--<82q22",
"===%%%%===<1265twq9,;&&=&->>>>>--=*&*&---:-&&-:8->--*#$*--:89221",
";===%=%==;25667tr03,=%%&&&*->--*&&&&**--:-;;;;-:>>>**#$$*--8892<",
"=====;;%=,157676622;=&###$&***#&$+&*&*--=;&&=;:-***-$+#$$*-:8<8-"
};
