/* XPM */
static char *_de38ae794c9456baa7414d7952df45eqB0yM2sA4ck71nlA[] = {
/* columns rows colors chars-per-pixel */
"64 64 98 2 ",
"   c #CE4507",
".  c #CF4807",
"X  c #CD4608",
"o  c #CE4A09",
"O  c #D04707",
"+  c #D24A07",
"@  c #D04708",
"#  c #D34D09",
"$  c #D84F0A",
"%  c #CF520D",
"&  c #D5530B",
"*  c #D9540A",
"=  c #D65A0E",
"-  c #DA5C0D",
";  c #D15810",
":  c #D35910",
">  c #D35B10",
",  c #D45B10",
"<  c #D35E12",
"1  c #D55E12",
"2  c #D45F12",
"3  c #D95F10",
"4  c #D9600F",
"5  c #DB610F",
"6  c #DC600E",
"7  c #DE600E",
"8  c #DE610E",
"9  c #DE630E",
"0  c #DF630E",
"q  c #DF630F",
"w  c #DE660F",
"e  c #D46113",
"r  c #D76212",
"t  c #D66213",
"y  c #D66413",
"u  c #D66715",
"i  c #D86211",
"p  c #D96311",
"a  c #DA6310",
"s  c #D86313",
"d  c #DA6312",
"f  c #DD6310",
"g  c #DA6511",
"h  c #DA6513",
"j  c #DA6613",
"k  c #DC6510",
"l  c #DE6712",
"z  c #D76816",
"x  c #D76916",
"c  c #DB6913",
"v  c #DF6810",
"b  c #DE6811",
"n  c #DC6913",
"m  c #DE6812",
"M  c #DE6C13",
"N  c #DF6C13",
"B  c #DA6915",
"V  c #D86A16",
"C  c #D86A17",
"Z  c #DC6B15",
"A  c #D96C17",
"S  c #DE6C14",
"D  c #DD6E17",
"F  c #D76C19",
"G  c #D76D19",
"H  c #DA6E18",
"J  c #DB6E18",
"K  c #DE7017",
"L  c #DE7117",
"P  c #D9701A",
"I  c #D9731B",
"U  c #DA721A",
"Y  c #DF7318",
"T  c #DC741A",
"R  c #DE761B",
"E  c #DA751C",
"W  c #DC771C",
"Q  c #DE7B1E",
"!  c #E06711",
"~  c #E06A11",
"^  c #E16A12",
"/  c #E06D13",
"(  c #E06E14",
")  c #E07016",
"_  c #E07116",
"`  c #E17418",
"'  c #E07519",
"]  c #E17C1D",
"[  c #DE7E20",
"{  c #E07F20",
"}  c #E2801F",
"|  c #DF8223",
" . c #DF8826",
".. c #E18322",
"X. c #E38A25",
"o. c #E38D29",
"O. c #E5922A",
"+. c #E7982E",
/* pixels */
"& * * & = = = = = p n Z 5 = = = * * * # $ # + + O O + +   #     # $ * = - w y M K R Q R W I U I U G Z p = = # o   $ & & * * * $ ",
"- - - - - 5 - - r N N l r = - - q * * + # $ $ $ + O             # & - * - 5 a S ' R K U I U G G Z y p Z w = & # + + + # $ & * - ",
"q q w w w ~ l 5 r M K N 5 5 5 - * * * * $ $ $ + O O   O O     o $ * * * * = l N x K Y V Z x x x H y y p 3 & & # + # $ $ * * * - ",
"- q w l q w l 5 l M M a 5 q - - * * * * * $ $ + $ $ $ O +   O + # * - * & - - l w w Z p < r e < r : = 1 = & # # $ $ $ # * * - - ",
"q w w l v ~ v l Z w w - 5 - - - * * $ $ + * $ # $ $ # #     + + $ * $ $ $ * - - q - = = % < = : : < = * & = # # # # $ $ * * - 0 ",
"q w l ~ N ~ N l w w 5 q 5 q - * * $ $ $ $ * * $ $ + + +     o + $ $ $ $ + + * - - = ; & = = ; % = = = - * * * # * $ * * * * - - ",
"q N ~ v v ~ / w w 5 - - - - * * * $ $ * $ * $ $ $ . o o o o X o + $ $ + O O + * & & # = : % % % = = * = * & o + # * * * # * * - ",
"= 5 l N l / w N w w q - * * * * $ $ + $ $ $ & # # o # # # o o   O + + + + # + # # % & & % # & # # & & & & o o o # & # & # & * * ",
"= 5 4 w c M v 4 5 5 q - & & $ + + + # # $ # * + X & # % # # o o . + + $ + $ $ & & & = = - = & % # & & # # . o o # &   & & & % & ",
"i 5 y M M v v q 5 w - & * * $ # # o + # # # & - a & - & % o o o o * * * * * * * - q w 5 5 = & & & & & & & % # # & & & & # & & - ",
"k k c M M M w w - = * & & # # # # & & # . & = w q - & = & & o o + * * * & - - 5 v v M w y - = & * - - & & & & & O %   & . & = - ",
"5 v M k p 5 q 5 = * # # + # # # & & . % = = - 5 - - = = & & & # * * * * - - 5 w v ) K x w 4 & & * * * * - - - & % o # % & & - a ",
"i v M k 4 4 = - = & & o   . & & & = & & = c 5 p p = & % & & % # * * * * - q w Z K M S Z a = = & & & * - - - * % o o o . . & 4 5 ",
"4 4 4 y 4 = = = = & & * * & & & 5 4 v - 4 5 c c p = & % o # & # # $ # * * - w w Z K U Z 4 % % & = * * 5 5 - & o o o # . & % & - ",
"= = = = 5 4 = & * = & & - & = = w 5 y c V V c p : ; : % % & $ & . + # # * 5 q 4 x Z Z x e % & # # * - - - & o o o o . & %   & & ",
"* = = = & & & . # * & & = = - 5 x x V V V V x x r 4 5 & & & & o . + # * * = - 5 p Z v = = & & % o # * * & % o o o o & . . % o % ",
"% & = * & & o & # & & = = 5 4 y V W W K Q U Z G j j f = * & # o   + + + & = & 5 4 y 5 % & % o . . # * * * & $ o o # * $ & & o & ",
"= & = - = & * # # # & - 4 5 V V W W Q } } } } Q ] ` Z 1 & & & $ # + $ * * & = a = = = : % # o o . # * & * * $ # # & & & & = : & ",
"= = = = - & & & # . & - 4 v x K U Q  .X.O.} X.| ] ' / 1 & = * * $ $ $ * - * * & = ; = = & o X   + # # * * * $ & * = - * = a 1 = ",
"= = = = - * & & # # = - w x K Y W } X.O.O.O.O.} { { / 1 % = = * $ $ * * * - * * & # & & # o # + + + # * * * * * 3 - ! 3 a l a r ",
"y 5 i - = = & # # # = 5 5 L Y Y } } O.O.O.O.X...{ { n 3 , & $ * * * * * * * * * & & & o o & $ # + + + $ * * - - - ! n h l N p h ",
"V x M 4 - - & & # # & q v v Y Y } } O.O.O.O.} X.{ T J s 3 & & * * - * * - * * * & & & & & * # # + O o $ * - - a n j n n H H h H ",
"L Z M i 5 - * & . # & - = v x Z W |  . .O. . .X.{ J H s & & , * * * * * * - - * = & & & $ # $ + O   O # * = - a n ' n ' W W I H ",
"G K x v 4 = & # # & * - = w p 5 x I } } } | } W H J s 3 & & # # $ * q * - * - - - - * * - * # o   O + + * - 5 a n ` R ] ] ] ] U ",
"G L x c 5 = % o # * - - - q 5 - 4 x V W W I U G x r < & & & # # * * = - - 3 = = - ! - * * & @   # # # & & = S M J ] ] } } } ] ` ",
"K V x v w = # o # & * * - q - - = e y G H Z H M p < % & & * & * - q f q f f l l j ! 0 = * & # o # # * - 5 5 M ' ] ] ..] X.} } ] ",
"Q x c 5 - = & $ $ * * - - - 5 & = = < = y c x x a : o o # * * 3 q w / M S ` ' / / n a = - & # o # # & = a c / ' { ..X.X.X...] ] ",
"R Z Z 4 - - & $ $ * * - * = * & = ; = ; = y 4 4 : % & # # * 3 3 w _ _ ] ] ..] ] ' S N - * & & # o o = - a c R ] ] ......] ] ] ] ",
"K M M w w - * - $ * * * * * & & % % % = = = = & * & # # & & 3 a p _ ..{ ..X.....] R n = = & # # # % * - w Z K R Q ..[ W } W W ` ",
"K K / w w - * - * * * * * & &   & # % & & = = & & # o o & & 3 / _ { ..X.O.O.X.X.Q U p a = = & # & & & = w Z Z R K Q U S ' _ K Y ",
"/ N N w w - q * * * * # # # # o # & = = = = = & o o o & 3 = p H { [ ..O.+.O.O.X...Z p e = % # = = & = = p x x K ` R u x Z u u K ",
"w N w w 0 - - * * *   # # # & & % = = - = = - % o & # & 3 3 h H [ [ ..X.+.+.O...E S u p - = = & = - - = 5 w M x K Z Y u x u y w ",
"5 5 q q q = * & & $ o o o o o & * 3 1 a 3 3 3 % % # & * = a h x [ { o.o.+.+.o.{ ' J h s 3 3 - * & - - 3 w w u x Z Z K x c x w 5 ",
"- 5 - w - * & & - # # # # % & & 1 l h h x s 1 1 , & = = 3 s h W [ X.O.+.+.o.o.{ { J n ! ! d 3 - 3 3 - ! 5 l p p w y w x p p M p ",
"w w - = - * * * $ * & # # # & = f n h H H T h x r e 1 f f a x Q [ X.O.+.O.O.....' ) ! 3 3 ! ! 3 q - ! 3 = e = < = 4 u M Z 5 Z w ",
"q q q - * * * * & * & o # & % ; s n C C { { { [ H S s a s 3 Z I [ { o.O.X.X...] ) ! a 3 3 * 3 * - - q ! w w a = e 5 w x Z Z N w ",
"7 9 = - * * & * * * * # o % & = s C H [ [  ...[ { J h a = r h H I ....o...} ] ' ~ a 3 * # & & = - q ! 7 0 ! a = = 4 w l N N M w ",
"9 5 - - * * # & # * & # # & % = h x E [ X.o.o.X.{ J s s r r x S E ] { { ] ] ' / ! 3 - $ & $ # & - - 0 7 ! j r = = 5 r N l w l w ",
"9 - * * * + + + # # # # # % % ; e z I [ o.O.o.o.{ H u s Z r a M J T E W J J _ ! 3 - & $ & * $ $ - - 0 ! 0 ! q = 4 4 Z w 4 5 5 5 ",
"7 - = * # + +   # +   # o % % = e G [ | o.o.o...[ C C h N Z Z x Z Z h h a ! 3 3 = * * $ & * * $ * - 7 ! q l w = p r Z c y w 5 5 ",
"5 = & & # # # .   + + + # o & % 1 H [ .... . .[ W V L S N r 5 = a , , , 1 1 3 & $ = $ # + $ $ $ $ - = q w w 5 = 4 x v M y 5 y 5 ",
"5 - & # # o # + + + + # # & & = e C E .... .| [ Q K K M l l = = , = = 1 & & $ # * * $ $ + $ + + $ * - - 5 5 = p w x x y y x c c ",
"4 = & & # # $ $ $ + # # # & & = 1 Z W ] { [ [ [ W K x w 5 - = - = = * = $ # # $ * $ $ $ $ @ + $ & - - = = = = c K x K K x W K Z ",
"5 5 4 % & * $ * $ $ + $ & & & = 1 p Y ' { { [ H K x w 4 - - - = $ # # # # @ @ + $ $ $ # + @ @ + $ $ = & - = = Z Z W W I U V W x ",
"T M i = * * & & * # # # # & * - 3 j J ' ] { ` Z p p 5 - a - * * & # o X   # + + $ $ $ $ $ + + @ + * * = = = = u U I [ [ Q Q W I ",
"W T x y - - - - * & O $ & * * - - l ! ! ` ` ` s 5 q w 5 - - & & & o   # # @ + $ + # $ $ $ $ $ + # * * - = 5 r x ] [ |  . . .[ [ ",
"W W G 4 4 4 - - = & # & * - - - - q f ! ! ! ! a q q q f = * & & # X X # # # # + $ + $ $ $ $ + + . # - - - = r Z R Q  .o.O. . .[ ",
"Q I V e e y - * * & & o * * - * & - ! f l 3 ! 3 - w - - * - & # # # # # # @ O @ + + + + + $ $ + + # * * = - : r x E  . .O.O.o.[ ",
"| Q I r r r : < - - - & & * = * - - q 0 0 q w - = - q - & & & # # # * $ * $ + + O $ $ # @ $ $ $ # # * & & * - < x V W | o. .O. .",
"| | I V u Z x p p 5 = = & * - - * - - 0 0 - 5 - 5 5 q - - & # # * * * - * * # # + + # # * $ & & # $ # & * - 5 5 L V I | X.X. . .",
"| [ | W U U U Z Z y 1 * & $ * = - - - q 0 q - = a - q - - * # & * & # * * * * * $ + # $ # * * * * * * * - - 5 w L L L I ..| X. .",
"| [ [ Q Q Q W U Z : = = & = - - = - 5 w - f = 5 a w w = - * & # & # O # * * & & $ # & # * * * * * * * * * - - q Z Z I u W E | | ",
"[ | ..} } ] I Z r e = = = - - - - - - = - r a e Z Z p p - - & & #   . . # # % # & # & & & * = * * * * * * * * - l a r x y H W W ",
"] | X.....Q W Z y r a w w 5 q - q - = w e a u J N Z p = - = & * + o o . # # # & * # & * , * - - = * * * # & * - * * < e = < c Q ",
"' Q ] ..] Q R U Z Z Z l v - w q - - a a S J Z H Z Z e r = = & & % . o o % # & & & & & & 1 f a a = & & * * + + $ * $ & & & : e Z ",
"p R ' ' ] R Z L Z H N N w q 5 - = = l u S S x Z x Z r = = = & & & . o o o # % : = = = a s a a a = & & # + + + + X # o # % # = 1 ",
"& y c x x K x u Z Z N l 5 5 - = - a a a p Z Z e y y c 5 = * * $ . & & % & = = = r = r s u r a e = = - * + O O X X X O @ # # & & ",
"& = = r M y x u Z Z l l w = - - a - a r e e r J x x Z c 5 - * * = & & = = a p u Z a h J x x Z Z h l q = * O O # $ # O O o # o & ",
"& % = = = e 4 4 r Z l l = = = w f - a - , < e Z M M w w 7 7 * * - * * & 5 N Y K Y W U G U U W ' Y n w - $ # # $ $ * $ @ o o o & ",
"& % o o % & < 4 - r r = = = 5 5 - f - 1 & % : e r N w 9 9 - 7 * - - = = p _ Q E W ] Q I E W Q Q W S N - & # # * $ $ * $ # # & o ",
"o o % o o ; & = = = = = = 4 4 5 q - - * & & = , < - q - q - - q - - - = p K R } ] ..{ Q W Q [ ] ] ' / ! = # $ * * $ * * * * $ & ",
"% o & # # & & = : = e e p 5 5 5 ! - * = o o $ = & = q - - - * * - - = 4 p Z Y W Q | ..Q [ [ ......] / ! q # & * * * * * * * * # ",
"o # & & & % & ; = = 4 p p 4 5 - - - = & # o X # # # # * * * * & & & = 5 v x K W Q Q Q [ [ [ ..{ ] ] ' ~ 0 & $ * * * * * * * , $ ",
"# % & & % - = & ; e r y w 4 = - = & # # # o # X # # $ $ * $ # $ # # = = 5 v Y K I W I Q Q [ { Q E R n n - $ $ $ $ $ * * * * - & "
};
