/* XPM */
static char *result[] = {
/* columns rows colors chars-per-pixel */
"64 64 48 1 ",
"  c #CE4407",
". c #CD4609",
"X c #CF4A09",
"o c #D04607",
"O c #D34907",
"+ c #D34C09",
"@ c #D5540B",
"# c #D9550A",
"$ c #D65A0E",
"% c #DA5C0D",
"& c #D65E11",
"* c #D85E10",
"= c #D7600F",
"- c #DC620F",
"; c #D76213",
": c #DA6412",
"> c #DC6B15",
", c #DB6E19",
"< c #DF7017",
"1 c #DE731B",
"2 c #DF791E",
"3 c #E0650E",
"4 c #E06610",
"5 c #E06D14",
"6 c #E17216",
"7 c #E1751A",
"8 c #E27B1D",
"9 c #DC7720",
"0 c #DF7C21",
"q c #E17E21",
"w c #E4801F",
"e c #DF8125",
"r c #E38324",
"t c #E58926",
"y c #E28628",
"u c #E48C2A",
"i c #E88F2A",
"p c #E6922E",
"a c #E8932D",
"s c #E69531",
"d c #E89631",
"f c #E79A34",
"g c #E99B34",
"h c #E79D38",
"j c #E99F38",
"k c #EAA23B",
"l c #EAA740",
"z c #ECAA42",
/* pixels */
"1111qreeeuppee28878767765,>>::;$$%----:>-6>>->,;1122w1<,,12<w8<<",
"882ryiuupfpuu0r88786888886,>;;&&=:-4>-->56>>;-;;,,,ww21<,<,<6<<2",
"8wwtiasisfsuyrr888788ww8881,:;&;:35---5666<>>;;;,>,2211<<<<<667w",
"88riadgssspurrw88888wwwtrrq1,,:;-:----55>>>-&;;;;>,111111<<<6666",
"7wrtagjgppprrww8777qqttrtrr2,:,:->-=%--6>===$;;;;,<122111<5>5566",
"8wtiagggsptrww77777qqtiyytq9,,;;>---#%-->=%=;==&>122wwe22<66-556",
"6wtidgjggptw887667qqtiupyy00,,&&---#@$%--$$$$$&;>,2wwe11<2<>>-56",
"68ridjgdppiw8766556qqupyue009,;&$-=#$$#$$@$=$;>;>1222111<<>>=-=:",
",10usfhfpat887>>:569qyypuye0,,&&$$#=%%%#%%%%=--;>122221,<<>=;-;>",
",0rpsggsapy216>:::,9qqpspyy0,;&&$------%=-->>>>>>1222221,,>;=;>:",
"qqrudgfspyq1,>>-:,,,0ypppy00,,&@#---34-4--->>-,:12wee2e2,;,;;->,",
"8ruuussptr21>>;-:,;,9qyuyq9,,&&$------5-33--->;><8wwwe21>;;;;;,,",
"8rtyuuuut21<;;;>::>,1qy001,;&&$@---%------====;><<2wrww,,;;;;>,1",
"9qrytyeute211>;:666>,1991,;&&@&$=#%-------%%%@$><<2ww21,;;;;;><1",
"12qrye00r2111,>>>:>:>>,,&&&$&$**#===---=$%#$@@==><88211;;;;>,;>,",
"10210211111<<1,:;,,;,:;&&&$$@*%*==-><>-=#%%@@$==%>76,,,;;,>,,,;;",
",1111,,:,>,6,71,,1,>:;;&*%*$$$*;;;>5,>;;&$&X@@$@$-<<65>>:,<11>,,",
"1,11<,,,*,697911186>>::;3:-*&&:,q,qqq86>;&&@X@$&$>><65>>>1711811",
",,1<>>>;**,6q8q81q817553-::**>7qqqrttqq>>;&&&@@@%-->55>:>6872821",
"1::,>:==*&,68qqqq188755:54:;;1qqupdsstq8,;;&&&$#$----4>5>7862821",
"><>:=-%%&*:88rrqwww86>>>4:::,9qysjjjgsyr2,:;&;:%@%$%-:44>6767211",
">>>-%%%$@$:78qqqrrr87<5>>:6,,qysjlzkkjayr0,,>::*$@@$%=-:5<<17<><",
">>:=%#@@@$*5689828w87<>>:5>79qphkzzzlhfsurq1,>:;$@@@#%%-56<6<1<,",
">::%%@@++**:57q,12116>>-*,,190ysjzzzzhffiirq88,;$@@@@%%==518<1<>",
";%=%##Oo+#%3>6>>>,,,>;:;;;,,qqysjlzzljfgdaprw2,;;=%$@%--->76766>",
";%$$##Oo+#%-45>;;;;;>;>>>>;,qypfkzzllkfjgdpry81,>>------6667866>",
"-%@#OOOO##%%44:;>;;;;>>>>;;,1yidjkzzkkkjggpute21:,;>->-6667776>>",
">=$##O#O###%%3:*==;==>->>;;>,rysgjjjkjkjffppu001,:>>->56566666>4",
"-%%#####O#%%%3;*%;;%;:;;==;;11quusgddggdpppetee22,,,>>>><>;>>->-",
"-33%3#3###%%3%*&;;;=;%%%%$$;,1qqqqyyiiiiiteteee29,,,<<>5>>:;-=>-",
"-3-33#%#3#3%**;&;:::=*%$@+@&>>1qqqqqtqrrreeeeee222<,<>>>>>=&=$%-",
"%-3%%3%%%%%%*::>;>>:=%$+X+@$%:::,,>5qq7q222ereew222,<<>>->;$;$%%",
"#%3%-%#%****;;,:,,,:**@..+.#@**&$*>:,,,111qqqqqq1q8<661>>>>====%",
"-%-3%%%:4:::,,,,71,:&@++..O+##@#&**444,5667qqrq8817116>>>:>>-:--",
"3-:%--:4,,,,,99977,**#++O++#++###$*-44445666888887671>>:>,<6<->-",
"543---:4451,,,,,7,;&&&#+OO+.++++@+#-**44>6>>>66,676777,,:111<655",
"-5--::4:,77,,,9,,,**@@#+OOoooo.++$#%*445>55>:::>>55667,>,1887666",
"6-354:::571,,9,,,:*&&@###ooooo+++##**44,55:::;&:3>55688,12888766",
"6---:*:>557,,,;,,;@&####Oo o+++++*$**4156>5:5>-%=-55687712ww8<55",
"->>-*:*;*5,1,,,,&;&@###+oooO#+####**:511,66>>4:%%3-5678,22881<>-",
">>:=::>=,,,,14:;&;**#++@++@####@$&*;>91,q765::%$#-:45,,12222<<>:",
"->>-->>>4,,,,,,;;&***&&@#*****#***;,>,q1qqq5>-%##%-45>,,1211:,>>",
"----->,<7,,,,,,:;;:4:*;;;;:44***;:,,1q1qqqq5>;%##%**;:>,111,;>>>",
">>>:>>><5,,,4,*4;;,,9,,91,,,4,444;,,,111qqq6>*@@###@%%&:><>;;%:=",
"><>><>>6,44;:**44457qqqqqq91165:,>>,,9qq7785:*%++%%#@$$&::>;;;;;",
":><,<<66,4****444578qquuqtqqq6,,,;*>,,,q77655*%@##%%#$$$::::;:=;",
">,,,<<>>,***44444188qquupppuqq,,>;;,1,,,65>55:%#+#%%$@@$%%;-:-::",
">,,=>,>-**#+*##**,8qiussssppqqq,>>,,54,>45,*4**%#%%#$@@@@$%=:>>;",
">,,;;,;;;=@@@##%-47qrispssduyq,,<><<5>>:=>>:=>:=****%#@+@@&*::>>",
"1,,,,:;:-=%@+@#%*:6qqtuppsduqq,,<<<6655>=->>6><>:::;****&$$;:>,,",
"2,,,,:>;=@@OO++#%456qqqqpdsuqq,1<<>565>->>:,<<1265555554>:*;>,71",
"2122<,:=%@OOO++##%:566qqqquqqqq,>>=>>->>>>,1wwewqqqq766666>::,1q",
"eww<<>=$@O+O+++###%;;:,1qqqqq9,,:===;=>>>><1werryyyqqq88871,>19q",
"eww21:=@+O########@%&=;,199,97,5===:==;>>>12eruppiuuqqqqq1819,1q",
"www<<-%@@+####%####$=&&;,,>>5,,,==&====>>,12erppuuuuuyyrqq989,0r",
"22<<>=$@@%3##3#%@$##$$@&*::>44,4;&$&&===:>,2etpuypuuyyrq0q0q991q",
",,,,;&$$%%*%%%%#$$%##$$@==>::>5-==%=$====>,11eeeepsspueeq0020021",
",>;;;&&&**>4:**:--$$$@$==:56<<--:>==->->>>,,11eyppfffupuiir00001",
"1,,;;*&;>>>>:*45>-==$@@=>>566655>===-><>>>>>,1etpssfsppssatye019",
",,;&&;&,,,,,,,1666>-@@==5<6w6665>-===>><><,;>1eeupsffepaspiyte01",
",,;&&,,,,991,98866<:===>><6w76655--==>55><>>>,2wuiaapeaaaitiiyw2",
",,,,,,,99900qqqqw2<>;;>>:<666665--==-->->>>>;,2wtiipaeuiiwtttrr1",
",,,,9,909eyrrqqqw21<>;>><<<676>-===-=-->>>>>,,2weriuteewwtwtttw2",
",,990eeeeeuuyrr821<<,,,>><6<<5--==---=5>>>;>>,<12wwww2w2wwwwwww1"
};
