/* XPM */
static char *result[] = {
/* columns rows colors chars-per-pixel */
"64 64 31 1 ",
"  c #CE4607",
". c #CE4807",
"X c #CE4608",
"o c #CF4A09",
"O c #D14707",
"+ c #D14907",
"@ c #D14608",
"# c #D34D09",
"$ c #D94F09",
"% c #CF520D",
"& c #D5540B",
"* c #D9540A",
"= c #D65A0E",
"- c #DA5C0D",
"; c #D55E10",
": c #D85F10",
"> c #D7600F",
", c #DC610E",
"< c #D66212",
"1 c #DA6411",
"2 c #D76815",
"3 c #DC6B14",
"4 c #DB6F18",
"5 c #DE7117",
"6 c #DD7319",
"7 c #DF791C",
"8 c #E06D13",
"9 c #E17316",
"0 c #E17519",
"q c #E17B1B",
"w c #E2811E",
/* pixels */
"&=*&=====23552238,,-**&#O##+@++X+#**--=<:131<;<;;;===&+++#**=-=&",
",-=-,,-=,39542388,,-*-*$#+XX  XX+****--,8,1<1;;%;==,-&####+#**--",
",,,,,8,,1993359388,,-=**&##+oXXX#*****,,883<;;&;=====&&#$******,",
",,,,,83,35933883,,,*---****&#@X+#**$$*-,,1,;=;;%%====&&&&$#****-",
",,,,88883353388,,,,,-----;*&XX+#$*$#$$---=;%%=;&==>=>-=*&*****,-",
",,888899853,38,,,-*--,,-;*&&oXXo#$$#@#**-*&*;=%%=<,,,<-=-******,",
",88899999583,,8-,---,,-<-*&#ooXX#$$+@@#$=&%&=&&=>>121<==--=*#**,",
"--,99q0000951,,-*-*---,=;&%;%&XXO@@@###+o#&&%==;=<2,1>====*&&*$*",
"=<155qq7q0681,>&#&&&==-,=>==&...O###$$$+**#=-===;12:2;:===*&#&o%",
"<235qww7wq531,=&&&&&==-32,>=&%..O#$$$*$$*=,,,<<,:282222;;;;&&&*;",
"1857wwww753<>==&&&&&*-183,>==%..#$$$$***-,,,1,,<88898232;&;&&&;;",
"1336577755<>==&&=&&&=,13,1===#&.$$*$$*,-,8,,<,<<18800092;%%#&&*;",
"-333355552>=&&&===&&=12,2>=&%###&$*#&*---,,,:=;><848004:;=%##==;",
"-113332351>,>&&=,--=,,,2,=%o#%&.#$$#**---,1<;*=;8290092;%%%%##*;",
"==:<22>>,<>,,=&==,>=<<<>=%&%##$#+###**=&--=;==;=;18992;;%&&&#o@&",
"&*=======>,&====-=<><>>====&&&&#+#$$****=-=&&&&=&;8222;%=%&%#ooo",
"o&*&=&&&&==*;=-;:<2232<:>>,=&%#...$***&&&&&%%%&%&;:88,,&&&*&*&#%",
"&o*==*=&##*--=:11333333383,>=#-&*#****&&&&&%#%#%&;,,,,-=&=&&#&*#",
"&&&=-&**&+&---<<1367qqq058,>=---&***-***&&%&&..##-,,,,-*&-**--&&",
"&&&&&&###+**:111340qqqqq653>%=-=-,----**&######%&**--,---,,-->=&",
"&-&&&&$##+**-812377wwq77751>=&-,,,,---**&####*&###&*--,*-,,>--=&",
"=,>--**#++&---1337wwwwwq558<=--,,,,,,--*&&%##&*####&*--=,->,>,=>",
",>--=*$#O+$**--<267www777551==>,,,,,,,---&***#&#+X+&*=--,,,111>>",
">,>>-&#.+$$*--,=<467w776231,=&&&*,,,,-,>---*-*&#++o#&*--,,,3331,",
">>>-=*..#$***,-=;226666422<%=&&&-,,,,,--,,,-**#.###**&>,,388333,",
">>>==&#.#***-,--;<2444664<=%&--,,,8,,,,88,,-&&##&&*&=>,389999933",
"1<,=&*$##**---,=;2<246754>%%#-=,,,88898883,>>&&###*->,38900q9933",
"3,,=***$$**--,==;<<2<453<==&*=-,888889q9991,-&&*#%*>>39660009933",
"2,,,,,****-*->>=;<<2422<>=&%&&=,,3990qqq65,>==&&%&&>188566458828",
",88,,,,****-->>=<2<12<1<=%&#-&,,235qwwqq651>>&=&&%*><846655282<8",
"89,,,,-,---=-,=><22432,==#%&-&>,3380www952>>>&&&=*=><85565<22<>8",
",,8,,,-**-*&-><3245332,=%o#&&--,1390qwq95<>>===-=->>>254555222<>",
",,,,,-&*=====<22666432;&.%#*&==>15977q73311,,>--&,,,3553545528>>",
"18,,-----==>>244666432;==#**===>25qqq9038,1,,,>=-,,,153584852289",
"3,,,,----,><2246qq66433:====-*>1239qq9988,>-,,,-,,11,312<4575888",
"88,,-----,<><24677646631>-=*=&=>23509983,,*-&&-->,,3333224566658",
"33,,-=*-,,,<<222666446631,=&&&=><345383,--*&##*&-,,8883>28976q98",
"8,,,-----,><<222444466053,=&&&==,113188,--*$&#.#*-,,,81,<2977999",
",,,-=&&=====><;<224477752=&%=====<,,--,-&-$#*$$$*-,,88,,>5665833",
",,,*=&###&=>%;<<22447554>==>----===&==-$#*$$$*$$**-,,8,,<585833,",
"1,-&=*&##&&==&==<2934322<--1--*===&&&&*#$*$#$O$#$*--,1-:>233232,",
",1=&&&&=&*&&&===;<243222<<1,,-===&&&%###**$#$OOO$**---;<<831>332",
">>=&&&--**&&====;;2882:21-,,,---=&&&$###$*$$$OO+$*****=;3<32<33,",
">,>=-*-*-&&&&&*=%;22382:<,-,--,==%&&#.##$$$#$OOO+$*#&**;,332<>22",
"2,,>----***#&***$-,88,8;----,,>,==#%#####$$$#++++$*$&&&%<233422<",
"12<>&---=*#*#&*:-,,,,88;,,111,=>,&%&&##$#$$*$$#+#$*&&**;33345543",
"22>=-=--=&#&-*$---,,,,:-,3,83,<,>%==-&$*$#$$$$#+O+$***&;:2367742",
"32>===&&*&##**-$$-,-----,,83331<>=>=&&######$$$#++**#&&&=<366762",
"42<;%;===&&&***&*-,-,,,,,18832,,111,-&*#+&&##**&$$##$$#%&=<46664",
"522;====-=&=#****-*,,,,-8838332<831,,--*##*&****###$**&=>><35676",
"522<11<>-=&##&***--,,,--3898552333,,,,-**&&=*-==*****---,,>24667",
"744422,,=&##%&*****-*--,3384353,1>=----&*&**-,,-,--***--,,<><446",
"57q833<=&%*******=*===;113643532>=%&&&==-&==,<,,---***---,=<<245",
"00q931>>=&*->-,>--====<183335331>=&=&&&&**-<=13,,->*****-=>><<45",
"50095,>>=>-,,*,--*=-,<:134234332>=%%&o&==*=;,132>>****#**==<;;<5",
"238,3,<==>,,,,,-==,-,<;<2321122,=&&%&o%&*==:,331==&&####+&=%;<<<",
";>,<,<;==>,,,,>=--<<-<<;,23221,-==&&&&%&===<<11>:-**&+. +o*&;;<;",
"<<======>>,,,==,,,,-;=;<133831,,>===&>=>,=>>;>>,1,,-*++#*-&*;<<<",
";=====&;,>,,,>,311>,=&;<233893,,,-&&=,1,,1<;<<238,,-&#$*=,-=;;;;",
";=%o&%&=-=>,=>13331<%%;;2,888,8,,>&&-,833,2<<<338:--&+***-,-<<<;",
"=%&%o&=%===,225398,>&&==,,,8,,,,,->&->,3381<<<1388,-$#***-,,181-",
"=&=&&%&;==<2335903,,&&&&&=,,,,,,*-*=->,1183<<<338,,-*$$&-*-,8,<:",
"&;&=%&&=;;123455931==o%&##*-,***&#&*->,1113<223388,,**$***-,,88*",
"&&=&&=;%=<2455534<,=&%####*$**&&##**->,11<<<<13<----*#$$****,,1-"
};
