/* XPM */
static char *result[] = {
/* columns rows colors chars-per-pixel */
"64 64 41 1 ",
"  c #CE4507",
". c #CF4807",
"X c #CE4608",
"o c #CF4B09",
"O c #D14607",
"+ c #D34A07",
"@ c #D84D07",
"# c #D14708",
"$ c #D34D09",
"% c #D84E09",
"& c #CF500C",
"* c #D95007",
"= c #D5530B",
"- c #D9540A",
"; c #D65A0E",
": c #DA5B0D",
"> c #D65D10",
", c #D85F10",
"< c #DC620F",
"1 c #D66313",
"2 c #DB6411",
"3 c #D76916",
"4 c #DC6B14",
"5 c #D76C18",
"6 c #DA6E18",
"7 c #DE7117",
"8 c #DC731A",
"9 c #DE7A1D",
"0 c #E06C13",
"q c #E17216",
"w c #E07519",
"e c #E17C1D",
"r c #DE7E20",
"t c #E17F20",
"y c #E2801F",
"u c #DE8222",
"i c #E28422",
"p c #E28A26",
"a c #E48E28",
"s c #E5922B",
"d c #E7982F",
/* pixels */
";;;=-;;;,17w9989w9q2<<==o&*$#$oo##=$=*==*-;=$oooo=$=*&..+*:::<:;",
":<:;::,,108tr99ty7q4<<<==oo.XXX +=***=-;::;==&oo&&$--=$+$o$*-;::",
"<<::<00<4wwweeyeyw002<<--=&$$XX#@=**%*:::<<;=&$o=&&;-=&.&=-=--::",
":<<<<<004wwwweeew07442<<<:;=$##+$*-%@%:::<;=&&=&&==;;;-=--=-:-::",
":<<000qq4ww78weq0040432<2<>;oo##$*@+@=:::-;=&&&&=;11<<<1,---*::-",
":<0000wwwe87wew0444<400421>&oXXo%**@O#*-;=&=;;;;12440341,,>:-*-<",
":000wtttttew7qq42424004841>;=oXX#$++##@@-=&=;&;;137w78330,:-=;*:",
"-<0qtiippiitwq02<<<24084411;;ooX#++#####o&&=&>;12788884322;;=*%-",
";,19rpsaaaptwq4,;;<11244431;=oX O#O+@O+#+$=;111336rrrr6534,;==&=",
",66taadsdsitw62>;;=<1277733<&oX O+@@@%%@$-::<2<7wrttrrrr613&=&=;",
"269tadddspttw2,>;=;>12788711>&..#%@%%%%--::<2237ttppprur61>>==;;",
"209rttaaapt63,>>1===;24744<;;&$.$%@@%%%%-:::<<37ttpasatr3>>&==:,",
",46tttrptr86,;;;;--=1<2221=&&$$.$%%@%%-%%--;;1258iiasaur5>>&&=;,",
",,2q8ttttt863,;=<;<=;1<1<;=o.$$.#%++@%-***-;;;15wtpaapr53>>&&$==",
"%>,2865888420,=;;;;==;;1;&&&$$&$##$+%%%$%%===;114eipur55>>;=&Xo=",
"&%;;>1>,,2,,;;=======;;&===&&==o##$%$$+#+$$$o;;11wetrr51>>>=&XX#",
"X&=;>>;>;;>;;-;==;-->;;=<;;==&$$&+***$$..$$.o&;;149we741;;;==$.o",
"##%;===;==;=-=-=;->-,:>:<<<=;=;;-==-;-*$$.$oo&&;>47wwq42>;-=$=$o",
"##&;%;=%=o==:;;=;,,,2<424<<<;;<<<;::<-=$$.$$$o.=;24qq2<::;:**=*$",
"&%#%==#%$#%%---;;-000400<4<;=<<14<<<<<-*$.oo.$==;;224<<::::*&-$.",
"$$%$%=%###$--::-:<44044444<1;1<<4<0<<<<*==...*==$=;;<:<:::-=-*o$",
"$==%%#%####--%::<40qq7q4034<1<<40000<<<:==$$$=-==$==::-:---*=*+&",
"==%==%#$###%%==>;<77w8770042<1<40000<<<<:;-**-=&#o$=-:--:-=--*&$",
"$%===%####%%%:==;2778887334<1=11<<00<<<<:;<---=$#$o$$*=--::;---&",
"&$%=*$#X#@%*-:-;;13888885111;<;=<4<<<<<<<<<<-=$.$$=$===;;:<-:--*",
"====-$#X#$%--:<-1138989883;;;<<<<<00<<<<<0<<;;=$==---=<<<<<<<<:;",
":===%$@@+---:<,,355589u983;&=<<<0<0<<0000<<<<;=&$$=;;<<<<<00<<::",
",:-=%%@%%%-,<,213588999931>;=:::<<<000q074<<<=;=$=&;<<04044<2<:<",
",-<--<**%--:<0413888998732;=;;:<;<020000q0<1;;==&==<224474112<1<",
"<0<<<-:--,,,0236888999551;====;;;<<200004<<2<;1=;&=1247777312<1<",
"<0<<<:<<:2:223669u999851;&==-=-<;<;<4002<1<;1=;;;=;14478883111;<",
",0<<0<<-:22268truuuu885>&&=&---===;<2422;1;1;;;;;1<<47888873411<",
"<20<<<;<>13359uuppptr4>=&o$$$=&&&;:;<:<<:,:,:::;:222qw997997554<",
"4<0<<;<<2335uuupsppr63>==$$&****-;:<<<<:::::2:::;:046w8999997777",
"7022<<<2275u9uasspur64;==$***$$==*;:<:-:,:;;:,:;::<46q888ruieww7",
"q0422<<<4755uuuusur6640;*&+$$o$===;:-::----%*---:<<0686889eieeee",
"q70<<<1147w899uuurr332;;-=## .$$@=---*:--%-%$#$$::<00q6489ypyyye",
"q700<<<<24789u99rr5321:;=$.#..#$&*==---*-=%$$$#%-:<<006479yipyyw",
"042<<;11<1378885533>1<;-*..O$$$$+*&*+*-*%%$$%%%O--:<002358eye9ww",
"042<;<=;;1145553333>;;-=. .@@===&oo+$*@*#%%%$%%@@-:::00257ee9770",
"424;<;<;;1111111>32>;=#$##*--*$$*.o+$$$#+%%%@O@#O--:::;244685454",
"22<;;;<;;<;<111;&>->=$$#$$:--:-==&*&$##+%-%#O##O@---:;;>25441442",
"<;;;;;;<<=<;;<<;>;>;;$=$==-:;:;:;&===#++-%%%@###O%%**=;;2222>142",
";;;;<<<<<<=;;===&=-;=;$=*--:::2:;;;==$#$%%-%@# OO@$+$$o=;:1;;>:;",
"=<<;;<;<;-====-:*:-:::-**;;;222211>&==$$%%%%%####O%@$o#&-;;;;;;;",
";<;<;<<;<-==*---:--:-::-;<20444541;1>===$%--%%$#O@%%@#$$:;:;;;;;",
"=;;=;;=;;-$$---**-:--::;224w778851111;;*%%$%%%$##O%@*$$$$=;;:;;=",
"=<=&===-=*$+=****---:::;20ww9e888572>;=$$==$%$%$#+%+##. .$-;;:1=",
";;&&o=&$===+$*$*-----<0:2wwe9y9999ww0,;=$%=-=--*$$%+++O Xo&=;;;;",
";;&&$$===**$.$=*---::<:,qwetiir9ieww00,-=;;->;:;=$$$@@@@=oo=;<1<",
"1;;;&===*$$..+$**--::<<:6wiipiuiie76020->;-,,,2::----------=;2<2",
"<11;;===.....$*=**-----04weiuiuut86202,;:;>,004222::-:--::;=;252",
"44<<<&o$. ++******=====>4w9tipi9933>>>;;,>,2454420:::--:::;11345",
"777<<=$o .+-=---:*=*$=>>4789iiut6311;;=;->22478q42,:---::;221157",
"wq0<;-$$.+----::-==-;;;>46699rr953;=;o$>;;,257772,>;-=$-::>23379",
"74<<;=$$$*--:<-<;-;--;&;>466899841>&&$$$$;>125742>-;-==$&-115588",
"1<1;==&.==-:-;<;;::;-;=;127788743>=&&oo$==;;111;<::-=$#$==>166r3",
"311;;=$=*=:;<;<<222;;==>125w887421;========;;;;1;:::=$$-:1236rr5",
"431==$&;;-1<11274422=;;><27wewq04:;==--=*==&&;;<<;::=#$:<4445556",
"31;&$&&&=<<11278w842&o=><40qqq00<<-o$*:----&&&;;-:--$#$::<0wrrr6",
"3>=&&&=&=;>1488weeq2;;;;12400000<:=*@*--=--&o=--::--%+$-:<0q9wr4",
"11>;&;;;>;3889yyyeq2>&-;-;<<<<<<:-=&*=&=*;=ooo=-:---%O%-:-00q884",
"1>>;&&;;>>489yiype82>&===-:<<<:-=$&*@&**===o&$==*--*%##%-:<0q663",
";;1&;;;&;3489uui9983>;=&$=----=&$$*$*=--==o=o===@@@%%##%--:<0002"
};
