/* XPM */
static char *result[] = {
/* columns rows colors chars-per-pixel */
"64 64 50 1 ",
"  c #CE4608",
". c #CF4A09",
"X c #D04606",
"o c #D34A07",
"O c #D34D09",
"+ c #D5540B",
"@ c #D9550A",
"# c #D65A0E",
"$ c #DA5C0D",
"% c #D65E11",
"& c #D95F10",
"* c #DC610F",
"= c #D76213",
"- c #DA6412",
"; c #DC6A15",
": c #DB6E19",
"> c #DF7017",
", c #DD731B",
"< c #DF791E",
"1 c #E06D14",
"2 c #E17116",
"3 c #E1751A",
"4 c #E27A1D",
"5 c #DC7720",
"6 c #DE7B21",
"7 c #E17D21",
"8 c #E5811F",
"9 c #DF8126",
"0 c #E38324",
"q c #E58926",
"w c #E88A26",
"e c #E28628",
"r c #E48C2B",
"t c #E88D28",
"y c #E6912E",
"u c #E8942E",
"i c #E48F30",
"p c #E69431",
"a c #E89631",
"s c #E79A36",
"d c #E99B35",
"f c #E79D38",
"g c #E99E39",
"h c #E7A13C",
"j c #EAA33C",
"k c #EBA83F",
"l c #E9A740",
"z c #EBAB42",
"x c #ECB046",
"c c #EDB249",
/* pixels */
"4470tuusppsyr6,,222338<<<<<<::;===;*;;;1>>>;:::5999erq909008889:",
"000ruhdsfffa06<,4233<0q999<,:;==;>;11;1>8>>>:::5599eq09089:89888",
"0wtadkjjhjhrq04333448qqqq99<,::=;>>1*;>8>8>>;;=::9999998989>8>88",
"8qudhjkjjjdt004323440twyyrr89,::;>;;*111>>>-=====::8:89:8>>8>8>8",
"0wyajjkkjfuq084333380tyryur99,5:>1;*;;11;;**#====99>99898>8;>888",
"8wydjkkjdfrq08333348qyapyyy9<,::>11;#*;;;=##==#==>>8989888;8>>>>",
"4qysdjjjddq043222340tupppy9995=:;>;**#**-=##=##=;>988989>88;;;;8",
"30wudjhdayu83321;3,0ryppy9i99,:==*;#;*##=#####===>8:>,=::;;;;;=;",
"><9yudfsytq4,2;;;;<6rrpps9p955:==**-***#*##***===;=88:9==>:;=;=:",
"<99yssayyt7,2;--=:,<99psspr95:-==;;;;*1*-;1;;-*-;=8:::;:::=;=;;>",
"8qqyaauuq0<:;-;*;;,,9rassr99,:==*;111111111*;**-;88;8=::==:=;=:8",
"9qrryyyr07,;-=--;;:,6rrpy96,::=-**1;1111111*-*=>;;;;888:===;==8:",
"9qryr9yr0<,;-=--;;>,60r99<,:===&;;>*;111*****###=;>88>;;=====:89",
"qq9yy9r9q<,>,;->,>,,<6666,==%%=&#*=*;;11****###=;;;>>8;=====::89",
"9q9yrq990<,<<,:::,,::,5,====%&&=#*-*11;**####+##=;>>>;====;::==9",
"9r9906,,,<<><<,,,,::;;====%=%&-%#;;>;;*##*##+##+#=;;;>===:::99=9",
"<9999<,>:,,,7777,7:::--%-&&$&&&==;:1,;;-==#..+++#=*;1;--;>,<98<<",
"9998<>,>::7777e777773;;-$1-&%%-:,,3743:;=###++++##*11*;-;<<89099",
"9<<<<,;;::777wew7e7732:-1--&%;346700q7,;-=%=#++++#*;;;*;>8899tr9",
"<<<>;;-;=&77iiiieee73211-1-&=:77rruytq7<;=%%+##@+#****11>888qy99",
"773:;---&:,7tipiriq071--&1&-;:7qpddday07<>-=&-$@+++***;1><8999q8",
",<21--$#&&:7qiiirtr73:1-1&1:,77pdjjgdayq<<:=---##+++#**->,,8q0<9",
",:;--&##+&-77eeeeq0731---1;,57rddkkkjsay08<,:-=%+++++***>4<889<<",
"::--#@+++&137777573,:--&%&:257eidjkkjfsarq0<72:%+++++$#*;><8998,",
";==&@@ooo$1137,::::;=####=;:777idjkkgddpyuq04<;%-=*##$**;>4<8<<>",
";%&#@@ooO@**111=&=%%%#%---=;7eipjjkjjdddsut00<::--****-1288888<>",
";&#@@ooo@@@*11;&%%+++#*$-===37eadgkjdjgddurr076:=;*-*-11238884>>",
";&@@o@@o@@@**&&%+%+.+@#$$%=:37qiadddddddsarr076,,=;;-;122>233>>>",
"-$*@@@@@o@@*@*+++++.++++##%=:377ttaiaauaayr0096<,::=;2;;>>;;;-;;",
"1**$@@@@@@@@*@+++++.+.++@+#%::77770etrttt009079<,:;,>;;>;;==-=**",
"$**$@@*@@@$$@@+++++++O+O..+%--277757700706<9066<<,,;>;;>;-#####*",
"@$$$*@*@@$@$&@%@+#++.+O  .++&1-;;-;14473<<<066064<,,>>;---=#####",
"@$$$$@@$&@&&+&@&&&&+@OX XXOO@%%%%-1&11:::,7777773732:31--;-%%&@@",
"@@$$@&@@&&&&&-&&&&&+OOX XXX@O@@+#&&111;133377777333322;;;--&%%&&",
"*$$$$$*1&1&&-==:;&%+@OOX XOO@O@@@@&*--1113233773433331=1=:;11$&$",
"****$$&--1:=:-=:;&%+O@@XXOOXX OO@+&*--1-112:222223333,:=:::31*1*",
"******&-112:====&&&OOO+OOOXXX OO@@$-*111111;;--;123333::::32111&",
"*****&1&:21::===&&%+@@@@OXXXXOXOO@$-112231:1;;&1111133,2,5342111",
"****1#&:11::::=&%%O%@@@OOXXXXXO@+&&&-:3323:;1:-&&111272,53732-&*",
"****&-&&&::3:::=%%++@@@@XXXX@O@@@@&-:7333433111&&1112773577721&&",
"11-*-;---:,5::&&%%&&@&O+OO@@@@@@%%=::77577422;&&@1112<,,777,::--",
"**-*--;>:3:3:::&%%&&&&%%&&&&&&@@%&::,57777431-&%@$&12::<373,=---",
"****-;>,333:3::-==:;::::::;:;&&&-=::7777ww771-%#&$&*-::,37::=-1-",
"*111>>>34::3::;;:=55676575:5;-;&==::,77777722&%@@$$&-=-;:::-=%--",
";>,>>>>33:-:;;;;1377iii777773:11:&:::57777711-&$@$*$$==-;;;-=-&=",
">>,,,><31:&----12777isggspf775==:&&::57744731-&$#$$1$-&=;;;-=-=;",
";,<:,<>>:-&@&*1-147aigggggda75:1&&&:,:,5371111&%#@***$#%----;;;:",
":<,:,,>;;-&@$&&&-377sglgjjga77:&&&;-;:::111111&&&@1*%*##+#--;;:=",
"<<<::,::=-&@+@#&-27ragjjhhgi77:-*---;;;;=;;;;;;==---&&#++%--=;:,",
"555,,,:=;=%+O+#$-170tdgfggdi75-&1--*111-;-;>>><,:;:1111--&&-:2,<",
"6665,,,;=%@OOO@@&134eriipaae75;&****;1;-;;;,,<887733343221:-;,<4",
"99966,:;%@+.OOO@@-;,7777ere75:;&=****;1;;;>,880qeqqq704774:::<47",
"9qw9<>;%@o@oO@@O@#**::,,777:,:1&#+##=*-;;:,<09yyipptte0084<<:,69",
"qqw8<;-#@o@@@@@@$@#$%=::,5::;;&&#+##===;:>,90ypsddsspiitw98<,,<0",
"8q843>*=@#@*$@@@@+@#====-;&&&-&*####==;;>,,99psfsssgsppiyq995,<0",
"<8<<>-=##%@***@@+@###+++&&&&&&&&####===;::,89yasdfghgfsiy9996,<<",
":::;:=%%&&--$@$@+#*#+++###*#*#######==;;>,<999ysfhllkhfyi999<<<:",
"::::;;==--1--&&&*##+++####;1*1**====;>:>>,,<999shkxcxhhkhhr99<<,",
"::::-:%:,::2:&-1**##+#+=>;;1111*--**;,8>,>,,,9rshkxcxlkkkhuq9<,,",
"::====:5<,3,;-;1;1;*#+==>11181111-*=;>,8>8<,<9rshkzxllkkkhuu99<,",
"::==::565655,,3:>;;*%=;:>,8>11>11*;#->81<8>,,99ahjkkkhkkjhauyq0<",
"5:5:566666006673>>;;==::>>888121;;*;;;>>><<,,9ryhjkkkhhhdduru88,",
":,566699iiie07338>>>:=:,,,>88;>;**#;;>>>,,,,<<rrudjkhapaauuttq0<",
",5669ipiiiiie753:;;::,,:8,8,8>>-*=;*;>>>:,::<<999tydsyrtuutqqq88"
};
