/* XPM */
static char *result[] = {
/* columns rows colors chars-per-pixel */
"64 64 51 1 ",
"  c #CE4506",
". c #CF4807",
"X c #CE4708",
"o c #CF4909",
"O c #D14606",
"+ c #D34B07",
"@ c #D84F07",
"# c #D34D09",
"$ c #D84F08",
"% c #D75007",
"& c #D5530B",
"* c #D9540A",
"= c #D65A0E",
"- c #DA5C0D",
"; c #D35710",
": c #D65D11",
"> c #D95E10",
", c #DD610F",
"< c #D76213",
"1 c #DB6412",
"2 c #DD6A15",
"3 c #D66618",
"4 c #D86718",
"5 c #D76819",
"6 c #DB6D19",
"7 c #DF7017",
"8 c #DD731B",
"9 c #DF791F",
"0 c #E06710",
"q c #E06C14",
"w c #E17116",
"e c #E1751A",
"r c #E27B1D",
"t c #DC7620",
"y c #DE7B22",
"u c #E17D21",
"i c #E4801F",
"p c #DF8126",
"a c #E38324",
"s c #E58827",
"d c #E18628",
"f c #E48B2B",
"g c #E6912E",
"h c #E8932F",
"j c #E69432",
"k c #E89631",
"l c #E79A37",
"z c #E89A35",
"x c #E79D38",
"c c #E99E39",
"v c #EAA23B",
/* pixels */
"111:00242tassddfsau8621=&&=&;&####*&*=&-,-=&&.oo&&&&,&.##=,,2q21",
"22120w228uasaadfsare8q0>>&#&oo#o%&*****,,,,==;;o;;==,==&=&&=,,12",
"q00qwweeeusaasssaarew222>>:&&oo#%*****,,,2<,=;&;===,,==&=&=-,,,,",
"00qqwereuaaaasssarrreee2w22>;&##&*-*&*,,,,,=&&=&===<<<<<,,==,,,,",
"20qweuraiaaraaarrrwe79876w24;$&#***+**,,,===;;===<36673<11,=*,,,",
"00weuassaaaaaiirrwwerii9ut4>;o#&***#+%*-,,&:,<==36777ii621,,*,,,",
"2weusshfsssurrrewwweriipt644:;Oo+%%&+.%&&&;&=:<<66pipi66821,=,=,",
">2uuskkkkkhsurew272w99i9u6664;#o+++++++%&&&<;<457ipppp8888<,=*=*",
"44tdglllzzhdurw2<,22799pp885<;oo.+++@@@O$%=>22288ppppppy664<==&=",
"06ugjlvvvzhduu21<,<278ipip87:;oX.%%*@@$@%=-12268isgpjppp885<===<",
"quuflcvvvkfduw24<<1158aap963<;#X+@*$@*@**-,2228tpfggzggpt55<<=,1",
"0uudgjlxkkdut24><,:<37ii976<=;&.#$*#@**@*--,2268afgzzzgp853<==11",
"4uuudfjjjfy844>><,==277w731=;&o.$**+%@@*@*=->168ifghzzgy83<<==11",
"0q6uuddffdy864>><,<,<1722<;;##&##$##*@$*@@===:38pphkzgp963<====,",
">14tutyyuu88w4>>:,:=<,<<=;;;&&&&++&%**#+@$$&&:168pfggpp833<<;;&=",
"=>4>6666662241>>,=:======;=#&=&#&&%&**@+@+$o&:<46isipp8633<=&&o&",
"#=>>>4>4>4111>===,<,====,,==&=&&;&&-&&##.&.o.;=<58iaar8231,<==&&",
";#>>>>>>;>1>>>,1-11,,11,,,1,==,,,,,,,,&&&.##&&;=189iir8241,-=-&&",
"&&;=->==&&=>--1-<,112qq20q2:=127127q2,=&&.#&##&=<779ew21,2,-,,=&",
"&$$=&*&*&$&*,,,><,27qq7q2q2<:277777wqq,=;&###;&==,1qqq21,,,-&*%&",
"&*&*&*$$##&--,,1,77w7w77772<<22wiii9w72,=&###==&&,1111,,,,,-**&&",
"&=****&$++$>->,127we79977777277iiiiiiwq2,,;&&&&=&&&=,,,-,--&,&&&",
"&***&&$#++$*-->>,779999e8776268iiiiiiiwq2,,==,=&&o&&*----,=-,=&&",
"&==&&$#X+$$$-->>1788iii7887722689iiiiww72q2<1,&;o&&o&**-*-,,*,*&",
"&&&&&%. +#**-,>><5899998866517277iieeww727701,==&=&&&&,,,,,,,,,%",
"=&&&&%.O+#**-1>><689p9pp973127777iiiiwwii7w22,===&,=,=,,,,q,,,,,",
",&&&%%++@**-,04466899appi73<<27wiieewiiw7i7772<====,,,12qqqqq,=,",
",,**&%%@$**,>0046t99ppap821<,2q7weeiwiiiiii7211<==,,<1277qq722,,",
",,,,--**$*-,0066t9ppp99965:<<,1q27i7iiiiii77721<:=:12777i72522,<",
"210,,,,--,,1q66t9pppp9986::=,,,20,27wwwwi757752<<,:2777i77732:,2",
"2q20,,,,,014t6tyypfpp965:;&==,,,,2,2www775222<<21112776ip7335<12",
",q0000,,>0246uudppfp996<;&&&&=&====,0q272<25222122275ip6pii67221",
"1qq,21,,5555tppdfjjdut>;;###%&&&;=,-,,,,1022222120q6euuuuuuuw862",
"7qqq,,<285ttpddjjjfyt4>;o##%&%&&==*,-,,,,,>0002012qetuuuuuuuteee",
"wwq2q22q88yyddfljjdu84>&&#$%%$+%&&&---=--,-1102-,2qewuttuddsarue",
"iwwq2,2q79ypddjjjfut64>=##+#OO#+.&*-*-**---&=----2qeeeuuuusfaaar",
"iiqq2,q27rrpppgfddyt4>-*&+.O  +++***%******%#&%=-00weutt9asfsssi",
"wwwq22227r9ippppyyt34>-$$. OO  +#++*%*******&%#%-10qweutyasggaii",
"w77q2,212889yy99t533>=&$+  O++OO+++%%@-**$%$**#**,,0qeet9pssaair",
"7770111114898988t333>;$O  O+*%&$&+++@**@$*=%$**$$*-0qwq689aarrer",
"777<122<122786643:0:;#ooo.$**$$#&+&.&%&#&*%%%##+$*-,,41588998977",
"272111202252544<3:>;&#ooO$*=*-=&&&&&&%&%*--%%#++$**-,,,428886778",
"2,<<12122121211<:---&$$$*%-----><====&&&--*%%++++$%&==;<26264522",
",<0,12222,<1,,<,;=---=&&=*--1202,=<<&=&%*--*%+ O+$%+&%&=,11<<<11",
"<21102212------,*,-->-->=-142226621<====*-**%%+++$$$###&=,,====<",
"=1,2,,02,,=*=-*-,-,,,00,22qeer8886<4,<=,-*--%%%+++*$%###&===,=&<",
"=,<==,,,--%%-*-**,-,0001qerirr9r866551,=-*---*%+++$$%%##&&=,*=*<",
"=<=======&&#*-*@*-,,,4q0eraaaspp999851,&*-*****&++*$.#....&&,,<=",
"<<==;;&&&&%##&%&*,,000w7eaasfppppir972,==--==-==%%%#@+O .X#&::>>",
"1==;;&&&=&%%.%%=*-*,0q28uaffgpfpfsiie72,=-,>1-0,=&&&@*$*%$#&>>11",
"2<<=&&=&%##.++%&**-,0026raggjgpffi99ww2,2->222221>>=-*--=-=&>142",
"612=,=%&#....+%%**---,,2raaffjgfpi97772,1122eew8w020-,--,-=>:262",
"77q,,&.#  +++#*%**%&&==2euddfjfpp865<<1,11289998ww021--,1>1446t8",
"ii72,##. O+@****-*&*&==46uuafffa9655<==<112899iru6q20>,,012666tt",
"ii72,&.#++%***-**==&===<wetyaaaa961<;=&<114289aiuw421-1112466tta",
"67<<=&.#+%**,--,*=--*=;<468tyapy8<<;;&&&=-4689994421>>->:16tttyu",
"624:&&o.+&--=->-<,,=====<69999996<<&&;&#&=<<48662222,===><68ypyt",
"t61:=&&&&=-1>11q2,1==&&<428iiire75<&&&&&%==,<<157q2q,==,2w6tyypy",
"t53;&&&=--14246e8721===127eiiiew71=&&,**==&&&<122121,=-2weetypyy",
"t6:;&;;==11246ru9r82;;;<17wrrrewq2=&%**,&==&;&,,,1,,=&-0qeruddpy",
"853;==;=:<668uaaai98<<<,12ww7www,,=%&&**-*&&#&=-00,,*&-0qqeudddu",
"653<==<<<38tyaffgir81=<,,<q77qw2,,&%%&*&=*=%#&=,,,,*-*-10qeruau8",
"6223<<,<56tuadffgs98<=====,,,,,,=%*&%&&*&&&&&&***-,,***,00qeruue",
"3<2<<<2438tafffffa984<====,-,,&&&&&&&&,*=&;&&&&=****=&$&-,0qeeu6"
};
