/* XPM */
static char *result[] = {
/* columns rows colors chars-per-pixel */
"64 64 42 1 ",
"  c #CE4406",
". c #CF4807",
"X c #CF4909",
"o c #D14606",
"O c #D24A07",
"+ c #D34D09",
"@ c #D5540B",
"# c #D9550A",
"$ c #D65A0E",
"% c #DA5C0D",
"& c #D65D11",
"* c #D95E10",
"= c #DC610F",
"- c #D76212",
"; c #DA6412",
": c #DD6B15",
"> c #DB6D19",
", c #DF7017",
"< c #DE731B",
"1 c #DF791E",
"2 c #E0660F",
"3 c #E06712",
"4 c #E06D13",
"5 c #E17216",
"6 c #E1751A",
"7 c #E27A1D",
"8 c #DC7720",
"9 c #DE7B21",
"0 c #E17E21",
"q c #E4801F",
"w c #E38324",
"e c #E58926",
"r c #E38728",
"t c #E58C2A",
"y c #E88F2B",
"u c #E7912D",
"i c #E8922D",
"p c #E79632",
"a c #E89630",
"s c #E79A36",
"d c #E89A34",
"f c #E99E38",
/* pixels */
":>>:666<8wetrw9ww77665>;;=-=$$$@@@#%%%%=====-$&&$-;::;---2,:,q::",
"5,,,77000ettrqwww776565>:;&$$$@@$$=%%%==4:=;-$&&--;,,:;-=-;-2::4",
"56677wwwrtyererwq7777755,>:-&@@@$%=%#=22:4:=-$$&;-;,,::-=:;2244,",
"5577wetwettwwww0777777777<,:-&&&%=%%#=22=:-=$$$&---::>:-:2==2224",
"5570eeyytte0qqq776667w0907<>-&&&%=%##%===-=-&&&&--:><<>>::;;==44",
"557weyiyttwwwq777667qwwww08>-&&&%%%#@#%==$$$-&--:,<<qqq>,,22;;=4",
"57qeyiaayyew77755567wwwrw98>>&@@#%#@+@#%$$$$&&--><qqq88>,,:;$==2",
"350eiadapute7755>4470wrrw888>-$X@##@#+@@@@$$&$;;><qqq88><,:=$=--",
">>8wpssspayw96>:;;>>08rrr98>-&&@+@@#######%%;:-;>8www88>><>-&$$-",
">99upsfssatw0<:;-;:><0wyrr98-&@X+##%##%##%22;:>,88wwwww8<>>-&$-:",
"60wtpssfpyr9<>:;=::><9tttw88>-@@###%%%%%%222::><8wrrrwww>>-----:",
"50rrrppspr98<;;;;;-->80w98>>-&@@#####%#%#%%2=::,qwrttrwq>-----;:",
"500wrtuuyr8<>-;;:=:-><898<--$$@X#%#####%%#%===:>>qwwurw8>>-&$=;:",
">000rrrrrw8<>--;=::-:><<>-&&@$@@#####%%####%$$->8qwrrww>-----$;:",
">><09999w0<<,:;;;;:-;;--&&&@@@#$@@$$%######@$$---qwwwq88---:-&-=",
"*::><<<>>,,:>:;---=---&&&&&@$$$@@$%%=%%####OX&--->qw18>-->:--$$$",
"&-::>>;>->>>;4;;;:;;;-$$=-=$$$$$$$====$$@@@+X@$$->qq7<<:;;4:;;-=",
"-*;4;-;-&*:;;>:::>:::=-====$$$:=::>,,:-$$@$X@@$$--,,655::::;;:;-",
"-*-;;;-**$*:4>>>:>45:4::=4=$=::<<7161,:-$$$@$++@$;:,444=:4442,::",
";**;%%$*$$*;454>>>56554::=:=-><17weqqq>:-$$@@$$$$$;:::4=:44;:4;-",
";;=%$%##@@*35<<5,6755,::::=:-><wetyyeqq>:-&$@=$@$$$=;;==222:::;;",
"$=;%%##@@+*3335<,777655,::,,>11ruiaiteqq>:-$--$%@$@$====2-:;4=--",
";%%%$#@@++#**3::,6q77<,,>:,,<<qtuaaauteq1,,:=--$@@@@$=%=2:::::;-",
"$=$$#@+O+#%*;3>::<,,<<,,:>><<<wwtuaaueeqqq<,,:-$@@@+@@%%-=2:22=-",
"$$$$##o O##%=33*;>>><>>>:>::,11qtupiitewwwq<,::&-$=@@$$=-=44222-",
"$$$##+OoO###=3;*;:>><,<<,>-><1qetpiiutrewewqq,--=$=-===24445,4;:",
"=$###OOOO##==3:*:>->>11<,>--,1qetyiitiueeeqq<>>:-=====24445554;=",
"=$$##O#OO##=*3;&-->>,<<<>>-->,7qwteeeyyytwwqq>>>--;;;::,,,454::2",
"===%%#####%%33*>>>>>><>>:-&->>,77qeeeteeewwq8q>>:->:,:,,,,:::;:=",
":=2=2%%##%%=3;>*>>>>>>-:-$&&;;,<<<17qqeqwqq8q>q,>-:::>,,,,:-:--2",
"=42=%#2%2%=*;::>><<<>>--$@@&;-;,,,><77q1q8<<>><<,,::,,,<,,-----:",
"==2222%%%2=;:>8<<11<>:;$@@@@===--=:=5<<,>>><88<<<,,,:q<,,,:-:;--",
"==4=====;--->888000<>-&@X++##%##$===;:3::,,<<6<<,65,667<,<<>:::=",
"=:=4====::><8899000<>-@++o++#$+#$$%2=;3;4::5565,,,5<66<6<<<7>:,:",
"54=====,:5<<89wr0y8>>&$+X++++++#@@#%=====4=:555:,,566<><<<977,<5",
"544:=;=:>51889wr098>-*#++++o+o+++##%#%2%=2==;:;::555<7<<110wq765",
"544:=;::5678899998>-*%##++ooo +oO####%2%===%$$$==445676<<qwqqqq5",
"6444:;=:4768988898>-**##+oooooo++###%%%2%=%%=$@%=234566><1weqqq6",
"54:2;=;:>,<<8>>>8-&&*##+oooo+oX+++@@#%2%==%$%=%#%=24575<1qwwq1<,",
":44=;;;;;><<8>8>->&&##++oooo#+#@#@@@%==%====%%%##%=3466<18qq1<,,",
":44-;;:-;>>,,>>---**@++X+++####+@@@@$;==;2==%#$##%%34,>><111<,>>",
"::;;;::::::>>>:--&**@@@++##%%####&&;-;;;::==%#++#%%%=;-><1<<:>,:",
":==;:2:44>:>::;-&&**&@&&*$*=3%**;*;;:;=:444=%@@+O###%==-,>>>-:>:",
";:;;:::54:;;;;-;***333*&;3*33*33;&;;-;;=454==#+OO#@@$@$-;::--&;=",
":::::4:43-;*3**%*333>3<3:>>>>>:>;>;-:::::=2==##+O###@@#$-----$-=",
"-2::::4433**%%*33335<66857767<,,,;-::;:::=:==##+#O##@@#@$===-=$-",
"-::;:22:=*$#%%%%%3336698wwww771<>>;>>>;;=;===#$+OO##$+@#$$$===--",
"-:------*#$+#%%##3536700weeeww8<<><>:;;;===%=%#@@###++@OX@$$=-=-",
"-----$-=@=#@@#@#%=4567wwwtteew811<15,:=--====;-&#$#@##O++X@$*;;;",
"::---$$-=@$@.@#%%=24577wrtturw91qq61544==;;;;-::**#*$##@$@@$;;;:",
">::---$$@++.OO+##==:5678reutee9wq1<5554==-;::,>>3;3;3;3*;=*&;:>,",
"<,<:;=-$@@...O+##%==3::<7rrerrw1q<,:444:=;:><q880064;43333;-->,<",
"q<,::$@@Oo+O#OO###%%$-->10wwwrw1>>:--;;=:;:<8qqq00664544:::>><<8",
"qqq,;=@+OO+#######@#$$->,108w081:----$-;::,<8qww00006>565><<>><9",
"qq,:;$@@++#####%#@@#%$$->,<<<971>:--$$$=;:><qweww0800>6665<1<<8w",
",<>:==@@+##%#%%%#$%$$$@&;:>><<1,>-$$$@$---:<8www0008>6>>>,<88888",
">>>>*$@+##%%$%%$===@@@$$$:55,5,4:-@$$@$@-$::,<88qqqq1<,,<>1<9w8<",
">>***$@$%%;;;*;3;;-=@$$--:,111<5:--=$==-=-;;:>>qqqwqq><1q9189998",
"8>&&$$$&;;;:>;:4::;-$$&$:,5qq555:;-@=====-----qq1qqq1<7qwwq78989",
">>&&&&&*;::>>>661,,;$@&-:,55q5554;=@@======&-->,11qq<<6qqqwwwww8",
">--&&---->>8>800qq>:--;;;4555555===@$======&$-:,1qq6,,7qqqqerrq8",
">>>>-->>>>899wwwwq<>---;;:555452==%$=$=$===$$-:,66q6<,<667qqwwq1",
">>>->->>889wwweweq<<:$=;;;4442===@#%$$%==--$--::55556::5577qqw9<",
"->>>>88>889rrwewqq<,::;;;;;::===$@%#%$==$=-$=-2;;4454:=:4557777<"
};
