/* XPM */
static char *result[] = {
/* columns rows colors chars-per-pixel */
"64 64 65 1 ",
"  c #CB3E06",
". c #CE4306",
"X c #CF4807",
"o c #CE4608",
"O c #CF4A0A",
"+ c #D14506",
"@ c #D44A07",
"# c #D14708",
"$ c #D24D09",
"% c #D84F08",
"& c #D4540C",
"* c #DA550A",
"= c #D65A0E",
"- c #DA5C0D",
"; c #D55710",
": c #D65D11",
"> c #D95E11",
", c #DC610F",
"< c #D76213",
"1 c #DA6413",
"2 c #DC6B15",
"3 c #D86719",
"4 c #DB6D19",
"5 c #DF7017",
"6 c #DD731B",
"7 c #DE791E",
"8 c #E06D15",
"9 c #E06E18",
"0 c #E17216",
"q c #E1751A",
"w c #E17A1D",
"e c #DD7620",
"r c #DE7B22",
"t c #E07720",
"y c #E17D21",
"u c #DF8126",
"i c #DF8328",
"p c #E28324",
"a c #E58927",
"s c #E28629",
"d c #E48B2B",
"f c #E88F2A",
"g c #E6912E",
"h c #E8932D",
"j c #E38F31",
"k c #E59432",
"l c #E89632",
"z c #E69935",
"x c #E99B35",
"c c #E69C39",
"v c #E99E39",
"b c #E7A13D",
"n c #EAA33D",
"m c #EBA83F",
"M c #EAA641",
"N c #EBAB44",
"B c #EBAF48",
"V c #EDB147",
"C c #EDB34B",
"Z c #EEB84F",
"A c #EEBC52",
"S c #EFC156",
"D c #EFC358",
"F c #F0C55A",
"G c #F1C95E",
/* pixels */
"ypddxvMMbbblsr4222557aiaiidp7743325550500p5u5uuuizzcbczggghffapu",
"aggzmNNMNNmzsr65005wpagggiuuu6445505550up0p5556uidjzzkgddipppppp",
"hhxnVCCVBBmkspwq0q0pagghhgdiu7646005500pppu54u<6uuiggdppaauppppa",
"fhxmVCZVBNndsyqq000pdhlzbxkguuu7u0p520000052<<444uuiaappaupppppa",
"ahxmNCZCBnvdppq00wwpflxhzbkkiuu70u02,50p52,<<<<<<uuuuppppppppppp",
"ahlnNVVNmvkapwq000ppfhbbbhkguu7up0u22,0,5<<<<<<<<5uuppuupp00p0pp",
"phhnmmNmvxfywq000wuahzzbzkgidu6e5052,1,,2:::::=<25uupp5u00p0000p",
"wagxnmnxzffyq00856wagzbzzggjdu7452225,5,<:::=:,:<52555520050,0,0",
"7uigzzbhjfpqq221357uggzzzkziur64252288,,,,,,,<<:<25244425222<524",
"uiaghzhdapw42211,67uigznbzzgu742<5508002552,,,,,<<2,<22<<2212<56",
"paagxhhfpt521,2,467rigbnbgidr743250000005552,,,:,2222222<<12226u",
"adggggdayq431<111667iglzgdire42325050p00005,<,==,,21555<<<1<2,uu",
"ahgggdiau7521<122567uaddiu74223120525pp8882,,===,,,,5,2,<<<<25uu",
"dggzhiiip755632476777uuuu64<:311,22550005,,<=&&=,,,25,,,<<<35upu",
"gggghdppuw677746776476674<<<><1122250555,2<==&=&=,,,<<<::<4666ua",
"gkgdip776776u7u777666633<<<<<11<<255u55,,,,=&&&&O=,,::=<<45uuuui",
"igdssu666eyppsiursr742<<;>1-:<<<3666p5621<:&&&&O&==,,,2126puaiig",
"jigspuu646ypddkdsdpr74118>,>-<4q77papp665<<=&&&&&=,,,,125uudgggg",
"gsspu755q6ysgkzkkdspw991181><4qppadghau741<,=&&O&*,,,,,45uaigzck",
"jiuu655544pdlvvckjksw988-81><6ysgznxzhd7743<:==&&&**,,257afghbkj",
"apu7522119ygzvnbzxgst911,11<3tyjxmmmmbgauu2<<1<=&&&*,,15qpigkzgd",
"iu76211113yfkznbxzgsq41->1896yjvmBVBmmbhiu75421,&&&&*,,27pidkgji",
"u7451,,,>3tpjlkjjjsyq21->14qtskMBCCCVmnbgduuq52<=&&&*,,2qppaggdi",
"7651,=&&;39yyjdsytt43>=-;>46rijcmVZCVmmbzhappt4<:=&&&,=18ppadgiu",
"442<-*$$&>9qtpytee33;&&;;:34rdjcNCZCVNMvxxlapp633,,-=-,287ppaapw",
"5<<=*%#o&;>29qt3>:;;;&&;;:<4yfzMBVCCCNMMnnxgdpe64321,,180ppaaapw",
"2<=-%@@@%*>8883::;OO#$;*::<3edxvNVVVMVVmmvlkdpur442112800ppppp6q",
"2,-&@%@%%***,>>&;OOo.@%$&:<3eskxmMNNMNNnnnxkddpr74222288050www55",
",,,**%%%$****>&$oo+ ++#$&;:35ydklvnvvvvvxxkddddr7464522224340122",
",,,*****%****%$$oo+ + +@&$;<4eyfsdglllhlkgddddiir754522221<:,<,,",
"---********&*$$ooo+  +++oO&:44qyytysaafaapiiiiuppy74511,,<;;=&&-",
"%*-*******&&$$$$oo#++++ .o$;11449t9qyyyt7rudpdapuy75521<,=;&&&&&",
"@&****&&&&&&&XOO$%@+++   ##;;>>>33939996qtpppaapppw5941->->&&*&$",
"%**-****,====&=O*$@$++    #%*;;->>>88899qwyppappywwqq211<:;-&&**",
"***&*,=,,,<==&&=&*$#@+++#@@%%%;;;>-88899qwwwpppywwqq91<>><1,>***",
"***,*&,,,2,:==&&&&$#@@@@++#@#$$$*;-88999qqw6wwwwwwwq9q3<3112>--*",
"*---,=,,222,,==&&&$X#@@@@++  #$#%>;8>9qqwqwq5450qqqq0q4334491,,-",
",--,=,,,2522<<==&&O$%$*%%+ ###O;**>84qwwwwqq54249q0qqwq444qq9,,-",
"---,,=1<245,3<=&;O&&%*;%@#++%#%%;;139yyyyww67q428890qwwqeqtq8---",
"-,,-=<1<256043<==&&&;;%;O$#%%%%;;:34tyappppwww021890wwytyetq18--",
",,,<,1234566633<=:==<:;;;;;-;;*;><26rsjssaay754<-880777eyrr631-,",
",,1,12255777563<<<111<3<3;>>>-*;<34rrssjlkay662<11296777yyr5<31<",
",,112556w6777644<3454e7eee999>>>13etijsklkdp761,,1126677pe74<121",
",5525066w6665544437usjiijytt919>334ersjjlhhpw41<>,1<2145e754<>1<",
"4q755qqqw54449499tydlcczkjjtt98>1136riskadayq42--,11112265542<<1",
"577777ww551211299ydlvNBMbbzjyt>31:<3rrssapppw41,>1,8213154212314",
"67u77w7q02,<28819ydlMBBBBBMzst3>-;:2errypytwq02<--8,111111251446",
"7uu7777541:=-->89ydzbBCBCBMcyt3:==:33566767404211<88<<<=<1115566",
"7upe7r742<--&--<9tslMNBBBBbjye>;-=<,15444555555244222,<<,=116667",
"iuuu777642<&&&-,8qtgvMBMBMvjy4:;-*-,2822345505up6655594262145677",
"aiiiuu764<=&$$**>9wslxxcbvzyy4;;&-&,,8222456uuupppppppwwwq545qpp",
"aidaiu76<=&$$$&*-19tydsjjjjy93;&&&&=,2252450ppdfggggafaapp7567up",
"igfaa743;&*%$%**--<4477utyt43>;&$O&=,<14557uufkkxvvvzkgggup777ru",
"afhap741;&*-**%**-=<<334tt9>>>$;$O;=<<15566uugcbbmMMbvnxlfap767a",
"aaapw621<=--****-$-=<<<<33;;;%;*O&&;<<26677uszbmMMNBBMbbbhgi767p",
"7ppqw511<<,,--**%$-===&=;;;;;;%&&;&;<<4566uudzbbMVCCCVBbcgiiu677",
"4665423<<,2,---&&&**&&=&&&,*&&&&&==<<44466uupfzbmZZSACVmbzgiu764",
"4444443349921--**&-&&&&===,,,*,*<<,1467u00uuudkmBZDFDSZCVmziu766",
"54444446q6672><,,,-=&&=<1<,2,,,,,,<18pppppu7udcmCSDGGSSSZBbdu746",
"443<34eetyr52118,,,,&&<<26800088,2,350pppppuugcmCZSGDSSSZVnhdu66",
"43444rriiire6542,,2,<<2467p000000,2,2pppppp7ujzmCZSDSSSSSmnxgau5",
"5667riijjijsrr5058,2<35767ppp00,222256007pppuizbCZSSSZCZmmvxhdp7",
"67uuijjjkkkddtq4621234577p7pp055,,2507u0upu7idgbbVVZSmmmmmnhhaa7",
"7uiiicbccbkkdtq42124677ppppppu552225500p6u6upiggzbmVmmmxnxhhhfap"
};
