/* XPM */
static char *result[] = {
/* columns rows colors chars-per-pixel */
"40 40 42 1 ",
"  c #1F292D",
". c #232F33",
"X c #253035",
"o c #253136",
"O c #28353A",
"+ c #613904",
"@ c #784400",
"# c #4D4A36",
"$ c #2E3C42",
"% c #2F3C43",
"& c #303E45",
"* c #314047",
"= c #314048",
"- c #324048",
"; c #324148",
": c #334249",
"> c #33424A",
", c #34444B",
"< c #35454D",
"1 c #36454C",
"2 c #37454C",
"3 c #36464E",
"4 c #37464F",
"5 c #36474F",
"6 c #37474F",
"7 c #38474F",
"8 c #37484F",
"9 c #364750",
"0 c #8F5300",
"q c #8A5008",
"w c #B0680A",
"e c #AB681B",
"r c #8F6839",
"t c #C2751D",
"y c #CC842B",
"u c #C7853E",
"i c #AD814B",
"p c #B38E64",
"a c #C78B42",
"s c #C78D46",
"d c #C79252",
"f c #C8955A",
/* pixels */
"6666666666666666666666666666666666666666",
"6666666666666666666666666666666666666666",
"6666666666666666666p66666666666666666666",
"666666666666666666#i#6666666666666666666",
"6666666666666666p#iir#r66666666666666666",
"666666666666666666#r#6666666666666666666",
"6666666666666666666r66666666666666666666",
"6666666666666666666666666666666666666666",
"6666666666666666666666666666666666666666",
"6666666666666666wywwwww66666666666666666",
"66666666666666yyaaaaaaaww666666666666666",
"6666666666666yaaaaaaaaaaaw66666666666666",
"666666666666yaasaaa0aaaaaaw6666666666666",
"66666666666wasadasa0aaaaauaw666666666666",
"6666666666yaad000aa0aaaaaauaw66666666666",
"6666666666waaaffa000aaaaaaauw66666666666",
"6666r6666wauasffaaa00@@aaauauw6666p66666",
"6666#6666wuaaaafsaa0aaa0@+auuw6666#66666",
"666#i#666wauaaasdda@a0@aaauutw666#i#6666",
"66piiir66wuaaaaaaaa@@aaaaaautw66rriip666",
"666#r#666waauaaaa00@aaaauauutw666#r#6666",
"6666#6666wuuaa00@aa@aaaauuuttw6666#66666",
"6666p6666wuuuaaaa@@@auaauutttw6666r66666",
"6666666666wuaauaaua@@+uuutttw66666666666",
"6666666666wuuuauaaa@au0@+ttew66666666666",
"66666666666wuuuaaua@auuttteq666666666666",
"666666666666wuuuaua+utttteq6666666666666",
"6666666666666wuuuuutttteeq66666666666666",
"66666666666666wwuttteeeqq666666666666666",
"6666666666666666wwqqqqq66666666666666666",
"6666666666666666666666666666666666666666",
"6666666666666668633456661666666666666666",
"6666666666666669;:::>:,6O666666666666666",
"66666666666668=*      Xo*666666666666666",
"666666666666***      oo*&**6666666666666",
"66666666666*667-%$$$$.&*****666666666666",
"666666666666**=--=****2****6666666666666",
"66666666666666**-=*******666666666666666",
"66666666666666666<<886666666666666666666",
"6666666666666666666666666666666666666666"
};
