/* XPM */
static char *result[] = {
/* columns rows colors chars-per-pixel */
"16 16 3 1 ",
"  c black",
". c #D9A066",
"X c white",
/* pixels */
"................",
". X..........X .",
".X............X.",
"................",
"................",
".......X........",
"....X.XXX.X.X...",
"....X.....X.X...",
"....X.XXX.XXX...",
"................",
"................",
"................",
"................",
".X............X.",
". X..........X .",
"................"
};
