/* XPM */
static char *result[] = {
/* columns rows colors chars-per-pixel */
"40 40 34 1 ",
"  c black",
". c #0F0E0F",
"X c #0B1214",
"o c #0C1214",
"O c #301914",
"+ c #132024",
"@ c #182124",
"# c gray13",
"$ c #382420",
"% c #253136",
"& c #2B373D",
"* c #73210A",
"= c #4E342E",
"- c #37474F",
"; c gray46",
": c #8A280B",
"> c #B53512",
", c #D15D04",
"< c #D84315",
"1 c #FF6F00",
"2 c #558B2F",
"3 c #AFB42B",
"4 c #FFB300",
"5 c #8BC34A",
"6 c #FFD54F",
"7 c gray74",
"8 c #C5E1A5",
"9 c #B0BEC5",
"0 c gray88",
"q c #EEEEEE",
"w c #F5F0E9",
"e c #ECEFF1",
"r c gray96",
"t c white",
/* pixels */
"----------------------------------------",
"----------------------------------------",
"----------------------------------------",
"----------------------------------------",
"----------------------------------------",
"----------------------------------------",
"------------#...------#...--------------",
"----------- 5trr ---- 777q.-------------",
"---------- 5tr  t....555  0 ------------",
"---------#5tr    r5555555  7.-----------",
"--------- 5tq    r55555555 7.-----------",
"--------- 5t0    t55555555 ;.-----------",
"--------- 55t0  05555555557 ------------",
"-------#.5555trr5558888880 -------------",
"-------.5555555558888888q --------------",
"-------.2555555588888888.---------------",
"-------.2225555888888888.---------------",
"------#.2222558888888888.---------------",
"------#222222223333333......------------",
"------#22222555553333 ==$$OO -----------",
"------.222225555555555......$ ----------",
"-----..*222555555555***<<<<<  ----------",
"-----.<<***55555555**<*<<<<<:   --------",
"---- :<<*<**********<<*<<<<<<<::...-----",
"---.:<<<*<<<<<<<<<<<<<*<<<<<<<,<<<: ----",
"---.<<<<*>>>><<<<<<<<<*<<<<<<161<<16 ---",
"---.<>>>*   >****<<<<   <<<<<464>146 ---",
"---.<>>> &&& >>>>>>> &&& >>>>,61>>,6 ---",
"-....<> &&-&& >>>>> &&-&& ww>>,>>>>> ---",
"-...wwX &---& >>>>X &---& Xwwwwwwwww ---",
"----  X &-9-&       &-9-& X          ---",
"------X &-e-& ----X &-e-& X-- .@@@@ ----",
"------- &---& ----- .---& ---- .#@ -----",
"-------- &-& ------- &-& ------   ------",
"---------   ---------   ----------------",
"----------ooooooooooooooooooooo---------",
"-----oooooo+++oooooooooooooooooooooo----",
"----%%oo++++++++++++ooo++oooooooooooo---",
"-----%%%%%%%%++++++++%+o++++++oo++%%----",
"----------%%%%%%%%%%%%%%%%%%%%o---------"
};
