/* XPM */
static char *b852112b7a084a10cac84fc7964d5511s85BrFNQvG9vwgeD[] = {
/* columns rows colors chars-per-pixel */
"16 16 2 1 ",
"  c #847E87",
". c white",
/* pixels */
"................",
".......... .....",
"..    .....   ..",
"................",
"................",
"..   ......   ..",
"... ........ ...",
".. .......... ..",
"................",
"..... ..........",
"......    ......",
"................",
".......  .......",
"................",
"................",
"................"
};
