/* XPM */
static char *result[] = {
/* columns rows colors chars-per-pixel */
"100 100 4 1 ",
"  c black",
". c #37474F",
"X c #FF9800",
"o c white",
/* pixels */
"....................................................................................................",
"....................................................................................................",
"....................................................................................................",
"....................................................................................................",
"....................................................................................................",
"....................................................................................................",
"....................................................................................................",
"....................................................................................................",
"....................................................................................................",
"....................................................................................................",
"....................................................................................................",
"....................................................................................................",
"....................................................................................................",
"....................................................................................................",
"....................................................................................................",
"....................................................................................................",
"....................................................................................................",
"....................................................................................................",
"....................................................................................................",
"....................................................................................................",
"....................................................................................................",
"....................................................................................................",
"....................................................................................................",
"....................................................................................................",
"....................................................................................................",
"....................................................................................................",
"...............................................     ................................................",
"...............................................     ................................................",
".............................................  XXXXX  ..............................................",
".............................................  XXXXX  ..............................................",
".............................................  XXXXX  ..............................................",
".............................................  XXXXX  ..............................................",
".............................................  XXXXX  ..............................................",
"...........................................  XXXXXXXXX  ............................................",
"...........................................  ooooooooo  ............................................",
"...........................................  ooooooooo  ............................................",
"...........................................  ooooooooo  ............................................",
"...........................................  ooooooooo  ............................................",
"...........................................  ooooooooo  ............................................",
".........................................  XXXXXXXXXXXXX  ..........................................",
".........................................  XXXXXXXXXXXXX  ..........................................",
".........................................  XXXXXXXXXXXXX  ..........................................",
".........................................  ooooooooooooo  ..........................................",
".........................................  ooooooooooooo  ..........................................",
".........................................  ooooooooooooo  ..........................................",
".........................................  ooooooooooooo  ..........................................",
".......................................  ooooooooooooooooo  ........................................",
".......................................  ooooooooooooooooo  ........................................",
".......................................  XXXXXXXXXXXXXXXXX  ........................................",
".......................................  XXXXXXXXXXXXXXXXX  ........................................",
".......................................  XXXXXXXXXXXXXXXXX  ........................................",
".......................................  XXXXXXXXXXXXXXXXX  ........................................",
".......................................  XXXXXXXXXXXXXXXXX  ........................................",
".......................................  XXXXXXXXXXXXXXXXX  ........................................",
".......................................  XXXXXXXXXXXXXXXXX  ........................................",
"...........................            XXXXXXXXXXXXXXXXXXXXX           .............................",
"...........................            XXXXXXXXXXXXXXXXXXXXX           .............................",
".........................  XXXXXXXXXXXXXXXXXXXXXXXXXXXXXXXXXXXXXXXXXXXX  ...........................",
".........................  XXXXXXXXXXXXXXXXXXXXXXXXXXXXXXXXXXXXXXXXXXXX  ...........................",
".........................  XXXXXXXXXXXXXXXXXXXXXXXXXXXXXXXXXXXXXXXXXXXX  ...........................",
".........................  XXXXXXXXXXXXXXXXXXXXXXXXXXXXXXXXXXXXXXXXXXXX  ...........................",
"...........................                                            .............................",
"...........................                                            .............................",
"....................................................................................................",
"....................................................................................................",
"....................................................................................................",
"....................................................................................................",
"....................................................................................................",
"....................................................................................................",
"....................................................................................................",
"....................................................................................................",
"....................................................................................................",
"....................................................................................................",
"....................................................................................................",
"....................................................................................................",
"....................................................................................................",
"....................................................................................................",
"....................................................................................................",
"....................................................................................................",
"....................................................................................................",
"....................................................................................................",
"....................................................................................................",
"....................................................................................................",
"....................................................................................................",
"....................................................................................................",
"....................................................................................................",
"....................................................................................................",
"....................................................................................................",
"....................................................................................................",
"....................................................................................................",
"....................................................................................................",
"....................................................................................................",
"....................................................................................................",
"....................................................................................................",
"....................................................................................................",
"....................................................................................................",
"....................................................................................................",
"....................................................................................................",
"....................................................................................................",
"...................................................................................................."
};
