/* XPM */
static char *result[] = {
/* columns rows colors chars-per-pixel */
"40 40 33 1 ",
"  c black",
". c #0F0E0F",
"X c #0B1214",
"o c #0C1214",
"O c #301914",
"+ c #132024",
"@ c #182124",
"# c gray13",
"$ c #382420",
"% c #253136",
"& c #2B373D",
"* c #73210A",
"= c #4E342E",
"- c #37474F",
"; c #8A280B",
": c #B53512",
"> c #D15D04",
", c #D84315",
"< c #FF6F00",
"1 c #558B2F",
"2 c #AFB42B",
"3 c #FFB300",
"4 c #8BC34A",
"5 c #FFD54F",
"6 c gray74",
"7 c #C5E1A5",
"8 c #B0BEC5",
"9 c gray88",
"0 c #EEEEEE",
"q c #F5F0E9",
"w c #ECEFF1",
"e c gray96",
"r c white",
/* pixels */
"----------------------------------------",
"----------------------------------------",
"----------------------------------------",
"----------------------------------------",
"----------------------------------------",
"----------------------------------------",
"------------#...------#...--------------",
"----------- 4ree ---- 6660.-------------",
"---------- 4re  r....444  9 ------------",
"---------#4re    e4444444  6.-----------",
"--------- 4r0    e44444444 6.-----------",
"--------- 44r9  94444444446 ------------",
"-------#.4444ree4447777779 -------------",
"-------.44444444477777770 --------------",
"-------.1444444477777777.---------------",
"-------.1114444777777777.---------------",
"------#.1111447777777777.---------------",
"------#111111112222222......------------",
"------#11111444442222 ==$$OO -----------",
"------.111114444444444......$ ----------",
"-----..*111444444444***,,,,,  ----------",
"-----.,,***44444444**,*,,,,,;   --------",
"---- ;,,*,**********,,*,,,,,,,;;...-----",
"---.;,,,*,,,,,,,,,,,,,*,,,,,,,>,,,; ----",
"---.,,,:*   :*,,,,,,,   ,,,,,<5<,,<5 ---",
"---.,::: &&& :***,:: &&& ::,,353:<35 ---",
"---.,:: &&-&& ::::: &&-&& q::>5<::>5 ---",
"-....,: &---& ::::X &---& Xq::>::::: ---",
"-...qqX &-8-& ::::  &-8-& Xqqqqqqqqq ---",
"----  X &-w-&     X &-w-& X          ---",
"------X &---& ----- .---& ---- .#@ -----",
"-------- &-& ------- &-& ------   ------",
"---------   ---------   ----------------",
"--------ooooooooooooooooooooo-----------",
"------ooo+++o+++++++++++ooo++oooooooo---",
"--oooo%++++++++%+++++++++%+o++++++oo+---",
"---%%%++++++++%+++++++++%+o++++++oo++---",
"----%%oo++++++++++++ooo++oooooooooooo---",
"-----%%%%%%%%++++++++%+o++++++oo++%%----",
"----------%%%%%%%%%%%%%%%%%%%%o---------"
};
