/* XPM */
static char *_8973a45ba0e47dcff876531569c19bbfG9J0uw5dVSeBXsr[] = {
/* columns rows colors chars-per-pixel */
"30 30 11 1 ",
"  c None",
". c #211F30",
"X c #9C1B4D",
"o c #CC3048",
"O c #E44A4A",
"+ c #28860F",
"@ c #72A11D",
"# c #E1CA33",
"$ c #F18B72",
"% c #A4CC42",
"& c #F7EC8A",
/* pixels */
"                              ",
"                              ",
"                              ",
"                              ",
"                              ",
"                              ",
"                              ",
"                              ",
"            ... ...           ",
"            .%@.%@.           ",
"             .+.+.            ",
"            ..oXo..           ",
"           .$OOO$$$.          ",
"          .$O&OOO&O$.         ",
"          .OOoOOOoOO.         ",
"          .OOOO&OOOO.         ",
"          .o&OOoOO&o.         ",
"           .oOOOOOo.          ",
"           .o#OOO#o.          ",
"            .ooooo.           ",
"             .ooo.            ",
"              ...             ",
"                              ",
"                              ",
"                              ",
"                              ",
"                              ",
"                              ",
"                              ",
"                              "
};
