/* XPM */
static char *fd21165e799040c1cdc4e6cba7f459e2oMYjYYAU3QdZ8zLZ[] = {
/* columns rows colors chars-per-pixel */
"66 56 10 1 ",
"  c None",
". c #211F30",
"X c #48475B",
"o c #BA570B",
"O c #CE8B16",
"+ c #E1CA33",
"@ c #F7EC8A",
"# c #AFBBC3",
"$ c #D8E1E4",
"% c white",
/* pixels */
"                                                                  ",
"                                                                  ",
"                                                                  ",
"                                                                  ",
"                                                                  ",
"                                                                  ",
"                                                                  ",
"                                                                  ",
"                                                                  ",
"                                                                  ",
"                       ...                                        ",
"                      .@%%.                                       ",
"                     .+@@@%.                                      ",
"                     .+@@@%.                                      ",
"                     .+@@@@.                                      ",
"                      .+++.                                       ",
"                       ...                                        ",
"                       .O.          ...........                   ",
"                       .+...........#$XXXX$$$$X...                ",
"                       .O.#$$$XXXX$$#$XXXX$$$$X.X.                ",
"                       .+.#$$$XXXX$$#$XXXX$$$$X.X.                ",
"                       .+.#$$$XXXX$$#$XXXX$$$$X.X.                ",
"                       .+.#$$$XXXX$$.X$$$$XXXX$#X.                ",
"                       .+..XXX$$$$XX.X$$$$XXXX$#$.                ",
"                       .+..XXX$$$$XX.X$$$$XXXX$#$.                ",
"                       .@..XXX$$$$XX.X$$$$XXXX$#$.                ",
"                       .@..XXX$$$$XX#$XXXX$$$$X.$.                ",
"                       .@.#$$$XXXX$$#$XXXX$$$$X.X.                ",
"                       .@.#$$$XXXX$$#$XXXX$$$$X.X.                ",
"                       .@.#$$$XXXX$$#$XXXX$$$$X.X.                ",
"                       .@.#$$$XXXX$$.X$$$$XXXX$#X.                ",
"                       .+..XXX$$$$XX.X$$$$XXXX$#$.                ",
"                       .@..XXX$$$$XX.X$$$$XXXX$#$.                ",
"                       .+..XXX$$$$XX.X$$$$XXXX$#$.                ",
"                       .+..XXX$$$$XX............$.                ",
"                       .+...........            ..                ",
"                       .+.                                        ",
"                       .+.                                        ",
"                       .+.                                        ",
"                       .+.                                        ",
"                       .+.                                        ",
"                       .+.                                        ",
"                       .+.                                        ",
"                       .+.                                        ",
"                       .+.                                        ",
"                       .O.                                        ",
"                       .+.                                        ",
"                       .O.                                        ",
"                       .O.                                        ",
"                       .+.                                        ",
"                       .O.                                        ",
"                       .O.                                        ",
"                      .....                                       ",
"                     .oOO++.                                      ",
"                     ..oOO..                                      ",
"                    .ooOOOO+.                                     "
};
