/* XPM */
static char *result[] = {
/* columns rows colors chars-per-pixel */
"100 100 5 1 ",
"  c black",
". c #7D3006",
"X c #35454D",
"o c #37474F",
"O c gray74",
/* pixels */
"ooooooooooooooooo    ooooooooooooooooooooooooooooooooooooooooooooooooooooooooooooooooooooooooooooooo",
"oooooooooooooooo      oooooooooooooooooooooooooooooooooooooooooooooooooooooooooooooooooooooooooooooo",
"ooooooooooooooo   ..   ooooooooooooooooooooooooooooooooooooooooooooooooooooooooooooooooooooooooooooo",
"ooooooooooooooo   ..   ooooooooooooooooooooooooooooooooooooooooooooooooooooooooooooooooooooooooooooo",
"oooooooooooooooo      oooooooooooooooooooooooooooooooooooooooooooooooooooooooooooooooooooooooooooooo",
"ooooooooooooooooo    ooooooooooooooooooooooooooooooooooooooooooooooooooooooooooooooooooooooooooooooo",
"oooooooooooooooooo  oooooooooooooooooooooooooooooooooooooooooooooooooooooooooooooooooooooooooooooooo",
"oooooooooooooooooo  oooooooooooooooooooooooooooooooooooooooooooooooooooooooooooooooooooooooooooooooo",
"oooooooooooooooo       ooooooooooooooooooooooooooooooooooooooooooooooooooooooooooooooooooooooooooooo",
"oooooooooooooooo         ooooooooooooooooooooooooooooooooooooooooooooooooooooooooooooooooooooooooooo",
"oooooooooooooooo           ooooooooooooooooooooooooooooooooooooooooooooooooooooooooooooooooooooooooo",
"oooooooooooooooo      OO     ooooooooooooooooooooooooooooooooooooooooooooooooooooooooooooooooooooooo",
"oooooooooooooooo      OOOO     ooooooooooooooooooooooooooooooooooooooooooooooooooooooooooooooooooooo",
"oooooooooooooooo      OOOO       ooooooooooooooooooooooooooooooooooooooooooooooooooooooooooooooooooo",
"oooooooooooooooo      OOOO          oooooooooooooooooooooooooooooooooooooooooooooooooooooooooooooooo",
"oooooooooooooooo      OOOO    OO      oooooooooooooooooooooooooooooooooooooooooooooooooooooooooooooo",
"oooooooooooooooo      OOOO    OOOO      oooooooooooooooooooooooooooooooooooooooooooooooooooooooooooo",
"oooooooooooooooo      OOOO    OOOO        oooooooooooooooooooooooooooooooooooooooooooooooooooooooooo",
"oooooooooooooooo      OOOO    OOOO    O     oooooooooooooooooooooooooooooooooooooooooooooooooooooooo",
"oooooooooooooooo      OOOO    OOOO    OOO      ooooooooooooooooooooooooooooooooooooooooooooooooooooo",
"oooooooooooooooo      OOOO    OOOO    OOOO       ooooooooooooooooooooooooooooooooooooooooooooooooooo",
"oooooooooooooooo      OOOO    OOOO    OOOO         ooooooooooooooooooooooooooooooooooooooooooooooooo",
"oooooooooooooooo      OOOO    OOOO    OOOO    OO     ooooooooooooooooooooooooooooooooooooooooooooooo",
"oooooooooooooooo      OOOO    OOOO    OOOO    OOOO     ooooooooooooooooooooooooooooooooooooooooooooo",
"oooooooooooooooo      OOOO    OOOO    OOOO    OOOO       ooooooooooooooooooooooooooooooooooooooooooo",
"oooooooooooooooo      OOOO    OOOO    OOOO    OOOO          oooooooooooooooooooooooooooooooooooooooo",
"oooooooooooooooo      OOOO    OOOO    OOOO    OOOO    OO      oooooooooooooooooooooooooooooooooooooo",
"oooooooooooooooo      OOOO    OOOO    OOOO    OOOO    OOO       oooooooooooooooooooooooooooooooooooo",
"oooooooooooooooo      OOOO    OOOO    OOOO    OOOO    OOO         oooooooooooooooooooooooooooooooooo",
"oooooooooooooooo      OOOO    OOOO    OOOO    OOOO    OOO    OO     oooooooooooooooooooooooooooooooo",
"oooooooooooooooo      OOOO    OOOO    OOOO    OOOO    OOO    OOO      oooooooooooooooooooooooooooooo",
"oooooooooooooooo      OOOO    OOOO    OOOO    OOOO    OOO    OOO        oooooooooooooooooooooooooooo",
"oooooooooooooooo      OOOO    OOOO    OOOO    OOOO    OOO    OOO   OO   oooooooooooooooooooooooooooo",
"oooooooooooooooo      OOOO    OOOO    OOOO    OOOO    OOO    OOO        oooooooooooooooooooooooooooo",
"oooooooooooooooo      OOOO    OOOO    OOOO    OOOO    OOO    OOO      oooooooooooooooooooooooooooooo",
"oooooooooooooooo      OOOO    OOOO    OOOO    OOOO    OOO    O      oooooooooooooooooooooooooooooooo",
"oooooooooooooooo      OOOO    OOOO    OOOO    OOOO    OOO         oooooooooooooooooooooooooooooooooo",
"oooooooooooooooo      OOOO    OOOO    OOOO    OOOO    OOO      ooooooooooooooooooooooooooooooooooooo",
"oooooooooooooooo      OOOO    OOOO    OOOO    OOOO    O      ooooooooooooooooooooooooooooooooooooooo",
"oooooooooooooooo      OOOO    OOOO    OOOO    OOOO        oooooooooooooooooooooooooooooooooooooooooo",
"oooooooooooooooo      OOOO    OOOO    OOOO    OOOO      oooooooooooooooooooooooooooooooooooooooooooo",
"oooooooooooooooo      OOOO    OOOO    OOOO    OO      oooooooooooooooooooooooooooooooooooooooooooooo",
"oooooooooooooooo      OOOO    OOOO    OOOO         ooooooooooooooooooooooooooooooooooooooooooooooooo",
"oooooooooooooooo      OOOO    OOOO    OOOO       ooooooooooooooooooooooooooooooooooooooooooooooooooo",
"oooooooooooooooo      OOOO    OOOO    OOO      ooooooooooooooooooooooooooooooooooooooooooooooooooooo",
"oooooooooooooooo      OOOO    OOOO          oooooooooooooooooooooooooooooooooooooooooooooooooooooooo",
"oooooooooooooooo      OOOO    OOOO        oooooooooooooooooooooooooooooooooooooooooooooooooooooooooo",
"oooooooooooooooo      OOOO    OOOO     ooooooooooooooooooooooooooooooooooooooooooooooooooooooooooooo",
"oooooooooooooooo      OOOO    O      ooooooooooooooooooooooooooooooooooooooooooooooooooooooooooooooo",
"oooooooooooooooo      OOOO         ooooooooooooooooooooooooooooooooooooooooooooooooooooooooooooooooo",
"oooooooooooooooo      OOOO      oooooooooooooooooooooooooooooooooooooooooooooooooooooooooooooooooooo",
"oooooooooooooooo      OO      oooooooooooooooooooooooooooooooooooooooooooooooooooooooooooooooooooooo",
"oooooooooooooooo           ooooooooooooooooooooooooooooooooooooooooooooooooooooooooooooooooooooooooo",
"oooooooooooooooo         ooooooooooooooooooooooooooooooooooooooooooooooooooooooooooooooooooooooooooo",
"oooooooooooooooo       ooooooooooooooooooooooooooooooooooooooooooooooooooooooooooooooooooooooooooooo",
"oooooooooooooooo      oooooooooooooooooooooooooooooooooooooooooooooooooooooooooooooooooooooooooooooo",
"oooooooooooooooo      oooooooooooooooooooooooooooooooooooooooooooooooooooooooooooooooooooooooooooooo",
"oooooooooooooooo      oooooooooooooooooooooooooooooooooooooooooooooooooooooooooooooooooooooooooooooo",
"oooooooooooooooo      oooooooooooooooooooooooooooooooooooooooooooooooooooooooooooooooooooooooooooooo",
"oooooooooooooooo      oooooooooooooooooooooooooooooooooooooooooooooooooooooooooooooooooooooooooooooo",
"oooooooooooooooo      oooooooooooooooooooooooooooooooooooooooooooooooooooooooooooooooooooooooooooooo",
"oooooooooooooooo      oooooooooooooooooooooooooooooooooooooooooooooooooooooooooooooooooooooooooooooo",
"oooooooooooooooo      oooooooooooooooooooooooooooooooooooooooooooooooooooooooooooooooooooooooooooooo",
"oooooooooooooooo      oooooooooooooooooooooooooooooooooooooooooooooooooooooooooooooooooooooooooooooo",
"oooooooooooooooo      oooooooooooooooooooooooooooooooooooooooooooooooooooooooooooooooooooooooooooooo",
"oooooooooooooooo      oooooooooooooooooooooooooooooooooooooooooooooooooooooooooooooooooooooooooooooo",
"oooooooooooooooo      oooooooooooooooooooooooooooooooooooooooooooooooooooooooooooooooooooooooooooooo",
"oooooooooooooooo      oooooooooooooooooooooooooooooooooooooooooooooooooooooooooooooooooooooooooooooo",
"oooooooooooooooo      oooooooooooooooooooooooooooooooooooooooooooooooooooooooooooooooooooooooooooooo",
"oooooooooooooooo      oooooooooooooooooooooooooooooooooooooooooooooooooooooooooooooooooooooooooooooo",
"oooooooooooooooo      oooooooooooooooooooooooooooooooooooooooooooooooooooooooooooooooooooooooooooooo",
"oooooooooooooooo      oooooooooooooooooooooooooooooooooooooooooooooooooooooooooooooooooooooooooooooo",
"oooooooooooooooo      oooooooooooooooooooooooooooooooooooooooooooooooooooooooooooooooooooooooooooooo",
"oooooooooooooooo      oooooooooooooooooooooooooooooooooooooooooooooooooooooooooooooooooooooooooooooo",
"oooooooooooooooo      oooooooooooooooooooooooooooooooooooooooooooooooooooooooooooooooooooooooooooooo",
"oooooooooooooooo      oooooooooooooooooooooooooooooooooooooooooooooooooooooooooooooooooooooooooooooo",
"oooooooooooooooo      oooooooooooooooooooooooooooooooooooooooooooooooooooooooooooooooooooooooooooooo",
"oooooooooooooooo      oooooooooooooooooooooooooooooooooooooooooooooooooooooooooooooooooooooooooooooo",
"oooooooooooooooo      oooooooooooooooooooooooooooooooooooooooooooooooooooooooooooooooooooooooooooooo",
"oooooooooooooooo      oooooooooooooooooooooooooooooooooooooooooooooooooooooooooooooooooooooooooooooo",
"oooooooooooooooo      oooooooooooooooooooooooooooooooooooooooooooooooooooooooooooooooooooooooooooooo",
"oooooooooooooooo      oooooooooooooooooooooooooooooooooooooooooooooooooooooooooooooooooooooooooooooo",
"oooooooooooooooo      oooooooooooooooooooooooooooooooooooooooooooooooooooooooooooooooooooooooooooooo",
"oooooooooooooooo      oooooooooooooooooooooooooooooooooooooooooooooooooooooooooooooooooooooooooooooo",
"oooooooooooooooo      oooooooooooooooooooooooooooooooooooooooooooooooooooooooooooooooooooooooooooooo",
"oooooooooooooooo      ooooXooooooooooooooooooooooooooooooooooooooooooooooooooooooooooooooooooooooooo",
"oooooooooooooooo      oooooooooooooooooooooooooooooooooooooooooooooooooooooooooooooooooooooooooooooo",
"oooooooooooooooo      oooooooooooooooooooooooooooooooooooooooooooooooooooooooooooooooooooooooooooooo",
"oooooooooooooooo      oooooooooooooooooooooooooooooooooooooooooooooooooooooooooooooooooooooooooooooo",
"oooooooooooooooo      oooooooooooooooooooooooooooooooooooooooooooooooooooooooooooooooooooooooooooooo",
"oooooooooooooooo      oooooooooooooooooooooooooooooooooooooooooooooooooooooooooooooooooooooooooooooo",
"oooooooooooooooo      oooooooooooooooooooooooooooooooooooooooooooooooooooooooooooooooooooooooooooooo",
"oooooooooooooooooooooooooooooooooooooooooooooooooooooooooooooooooooooooooooooooooooooooooooooooooooo",
"oooooooooooooooooooooooooooooooooooooooooooooooooooooooooooooooooooooooooooooooooooooooooooooooooooo",
"oooooooooooooooooooooooooooooooooooooooooooooooooooooooooooooooooooooooooooooooooooooooooooooooooooo",
"oooooooooooooooooooooooooooooooooooooooooooooooooooooooooooooooooooooooooooooooooooooooooooooooooooo",
"oooooooooooooooooooooooooooooooooooooooooooooooooooooooooooooooooooooooooooooooooooooooooooooooooooo",
"oooooooooooooooooooooooooooooooooooooooooooooooooooooooooooooooooooooooooooooooooooooooooooooooooooo",
"oooooooooooooooooooooooooooooooooooooooooooooooooooooooooooooooooooooooooooooooooooooooooooooooooooo",
"oooooooooooooooooooooooooooooooooooooooooooooooooooooooooooooooooooooooooooooooooooooooooooooooooooo"
};
