/* XPM */
static char *_257e2c373eb4925abb0ce8ec80ea5106HwzUt0CTyXBMOBs[] = {
/* columns rows colors chars-per-pixel */
"48 48 6 1 ",
"  c #211F30",
". c #64D88C",
"X c #30B173",
"o c #1C8C82",
"O c #11596E",
"+ c white",
/* pixels */
"                                                ",
" ....... ....... ....... ....... ....... ...... ",
" .XXX.XX XXXXoXX X.XXXXX XXXXoXX X.XXXXX XXXoX. ",
" oXXXXXo oXXXXXo oXXXXXo oXXXXXo oXXXXXo oXXXXo ",
"  ooooo O ooooo O ooooo O ooooo O ooooo O oooo  ",
" X     OOO     OOO     OOO     OOO     OOO    X ",
" .XO OOoooOO OOoooOO OOoooOO OOoooOO OOoooO OX. ",
"     Ooooooo ooooooo ooooooo ooooooo oooooO     ",
" .Xo Oooooo   ooooo   ooooo   ooooo   ooooO oX. ",
" .XXo Oooo OOO                         ooO oXX. ",
" .XXo     OOOOO                            oXX. ",
" .XXo Oo   OOO                          oO oXX. ",
" .XXo Ooo                              ooO oXX. ",
" ..Xo Ooo                              ooO oX.. ",
" .Xo Oooo                              oooO oX. ",
"    OOooo                              oooOO    ",
" .Xo Oooo                              oooO oX. ",
" .XXo Ooo                              ooO oXX. ",
" .oXo Oo                                oO oXo. ",
" .XXo                                      oXX. ",
" .XXo Oo                                oO oXX. ",
" .XXo Ooo                              ooO oXX. ",
" .Xo Oooo                              oooO oX. ",
"    OOooo                              oooOO    ",
" .Xo Oooo                              oooO oX. ",
" .XXo Ooo                              ooO oXX. ",
" .XXo Oo                                oO oXX. ",
" .XXo                                      oXX. ",
" .XXo Oo                                oO oXX. ",
" ..Xo Ooo                              ooO oX.. ",
" .Xo Oooo                              oooO oX. ",
"    OOooo                              oooOO    ",
" .Xo Oooo                              oooO oX. ",
" .XXo Ooo                              ooO oXX. ",
" .XXo Ooo                              ooO ooX. ",
" .XXo Ooo                              ooO oXX. ",
" .XXo Oo                          OOO   oO oXX. ",
" .Xoo                            OOOOO     oXX. ",
" .XXo Ooo                         OOO oooo oXX. ",
" .Xo Ooooo   ooooo   ooooo   ooooo   oooooo oX. ",
"     Oooooo ooooooo ooooooo ooooooo ooooooo     ",
" .XO OoooOO OOoooOO OOoooOO OOoooOO OOoooOO OX. ",
" X    OOO     OOO     OOO     OOO     OOO     X ",
"  oooo O ooooo O ooooo O ooooo O ooooo O ooooo  ",
" oXXXXo oXXXXXo oXXXXXo oXXXXXo oXXXXXo oXXXXXo ",
" .XoXXX XXXXX.X XXoXXXX XXXXX.X XXoXXXX XX.XXX. ",
" ...... ....... ....... ....... ....... ....... ",
"                                                "
};
